<svg width="164" height="164" viewBox="0 0 164 164" fill="none" xmlns="http://www.w3.org/2000/svg">
<g clip-path="url(#clip0_464_4210)">
<path d="M122.727 0.546875H41.2735C18.7808 0.546875 0.546875 18.7808 0.546875 41.2735V122.727C0.546875 145.22 18.7808 163.454 41.2735 163.454H122.727C145.22 163.454 163.454 145.22 163.454 122.727V41.2735C163.454 18.7808 145.22 0.546875 122.727 0.546875Z" fill="url(#paint0_radial_464_4210)"/>
<path fill-rule="evenodd" clip-rule="evenodd" d="M137.76 78.2703C137.02 79.6291 136.113 80.8754 135.062 81.976C136.113 83.0773 137.022 84.3232 137.76 85.6817C139.978 89.77 140.464 94.5029 139.123 99.0042C137.947 102.955 136.344 106.81 134.357 110.467C131.377 115.933 125.716 119.366 119.523 119.488C119.473 121.706 118.994 123.92 118.1 125.984C116.567 129.525 113.873 132.483 110.51 134.312C106.851 136.302 102.996 137.904 99.0484 139.08C97.3955 139.572 95.6993 139.819 94.0038 139.819C89.5219 139.819 85.248 138.063 82.0704 135.051C81.5648 135.541 81.0266 136.003 80.4562 136.431C77.4952 138.646 73.8315 139.867 70.1385 139.867C68.5174 139.867 66.9004 139.637 65.3354 139.185C61.0938 137.947 56.9837 136.231 53.1098 134.084C48.4609 131.499 45.2453 126.819 44.5064 121.561C44.4109 120.88 44.3588 120.202 44.3458 119.524C43.6897 119.509 43.0362 119.454 42.3971 119.362C37.0672 118.597 32.3368 115.32 29.7494 110.595C27.6761 106.808 26.0146 102.795 24.8087 98.6628C23.3055 93.4895 24.3369 87.8376 27.5602 83.5391C27.9749 82.9872 28.4178 82.4668 28.8904 81.9745C28.4206 81.4848 27.9791 80.9651 27.5673 80.4183C24.3383 76.1155 23.3076 70.4633 24.8116 65.2953C26.0231 61.1444 27.6803 57.1313 29.743 53.3634C32.3368 48.6363 37.0643 45.3552 42.3942 44.5889C43.1071 44.489 43.8141 44.4326 44.5107 44.4236C44.5671 42.2188 45.0467 40.0191 45.9354 37.9663C47.4685 34.4273 50.1611 31.4703 53.5236 29.6408C57.1823 27.6509 61.037 26.0473 64.9853 24.8712C66.6382 24.381 68.3344 24.1323 70.0296 24.1323C74.5393 24.1323 78.833 25.9096 82.0168 28.9506C85.2014 25.9096 89.4941 24.1323 94.0038 24.1323C95.6993 24.1323 97.3955 24.381 99.0455 24.8712C102.996 26.0473 106.851 27.6509 110.507 29.638C113.873 31.4703 116.567 34.4273 118.1 37.9677C118.994 40.0325 119.473 42.2456 119.523 44.4637C125.716 44.5867 131.377 48.019 134.354 53.482C136.344 57.1421 137.947 60.9976 139.123 64.9463C140.464 69.4502 139.978 74.1816 137.76 78.2703ZM81.9984 122.664C104.456 122.664 122.662 104.458 122.662 81.9999C122.662 59.5421 104.456 41.3362 81.9984 41.3362C59.5407 41.3362 41.3347 59.5421 41.3347 81.9999C41.3347 104.458 59.5407 122.664 81.9984 122.664Z" fill="white"/>
<path fill-rule="evenodd" clip-rule="evenodd" d="M109.568 81.7746C109.568 86.0848 108.567 90.164 106.781 93.7956C106.774 93.8095 106.767 93.8236 106.76 93.8377C106.717 93.9211 106.676 94.0014 106.676 94.0613C106.659 94.0965 106.64 94.1332 106.62 94.1698C106.601 94.2065 106.582 94.2434 106.564 94.2784C104.394 98.4695 101.279 101.877 97.6033 104.354C97.5822 104.368 97.5544 104.389 97.5333 104.403C97.4971 104.427 97.4614 104.451 97.426 104.475C97.3383 104.535 97.252 104.593 97.1624 104.648C97.0608 104.711 96.9609 104.774 96.8612 104.837C96.7613 104.9 96.6616 104.963 96.5602 105.026C96.5602 105.033 96.5533 105.033 96.5461 105.04C92.3948 107.594 87.5083 109.063 82.2857 109.063C81.7815 109.063 81.2776 109.049 80.7735 109.021C80.7421 109.018 80.7088 109.016 80.6755 109.014C80.6421 109.013 80.6088 109.011 80.5775 109.007C80.4095 109 80.2343 108.986 80.0664 108.972C80.0235 108.969 79.9791 108.964 79.9338 108.959C79.8831 108.954 79.8313 108.948 79.7793 108.944C79.6324 108.93 79.4922 108.916 79.3523 108.902C79.2517 108.896 79.1565 108.884 79.0569 108.871C79.0458 108.87 79.0346 108.869 79.0233 108.867C78.9567 108.86 78.892 108.852 78.8273 108.843C78.7625 108.834 78.6978 108.825 78.6312 108.818C78.5752 108.811 78.5192 108.803 78.4632 108.794C78.4072 108.785 78.3512 108.776 78.2952 108.769C78.2322 108.759 78.1676 108.748 78.1029 108.738C78.0381 108.727 77.9733 108.717 77.9101 108.706C77.8542 108.696 77.7982 108.687 77.7422 108.678C77.6861 108.67 77.6301 108.661 77.5741 108.65C77.5111 108.638 77.4495 108.627 77.3887 108.616C77.3144 108.602 77.2412 108.589 77.1681 108.573C77.0781 108.561 76.9934 108.544 76.9049 108.526C76.8901 108.523 76.8751 108.52 76.86 108.518C76.706 108.489 76.545 108.454 76.391 108.419C76.3069 108.405 76.23 108.391 76.153 108.37C75.9149 108.315 75.6769 108.258 75.4459 108.195C75.4222 108.192 75.4008 108.185 75.3804 108.18C75.3644 108.175 75.3491 108.171 75.3338 108.168L75.3328 108.167C75.1301 108.111 74.9275 108.056 74.7318 108C74.6547 107.979 74.5847 107.958 74.5148 107.937C74.4342 107.912 74.352 107.888 74.2697 107.863C74.1874 107.839 74.1052 107.814 74.0247 107.79C73.9577 107.773 73.8951 107.752 73.8298 107.73C73.8134 107.724 73.7966 107.718 73.7797 107.713L73.7792 107.713C73.6253 107.664 73.4715 107.615 73.3176 107.559C73.2757 107.545 73.2336 107.529 73.1916 107.513C73.1496 107.498 73.1077 107.482 73.0656 107.468C72.9921 107.44 72.9168 107.412 72.8416 107.384C72.7663 107.356 72.6911 107.328 72.6176 107.3C72.5822 107.286 72.5479 107.274 72.5143 107.261C72.4613 107.242 72.41 107.223 72.3585 107.202C72.2115 107.146 72.0645 107.09 71.9175 107.027C71.8755 107.01 71.8318 106.992 71.7879 106.975C71.7442 106.957 71.7005 106.94 71.6584 106.922C71.5919 106.894 71.5272 106.864 71.4624 106.835C71.3977 106.805 71.3329 106.775 71.2664 106.747C71.0144 106.642 70.7625 106.523 70.5105 106.404H70.5103C70.4963 106.397 70.4806 106.39 70.4648 106.383C70.4491 106.376 70.4333 106.369 70.4193 106.362C70.3563 106.334 70.3003 106.306 70.2443 106.278C70.1743 106.25 70.1112 106.215 70.0483 106.18C69.7823 106.048 69.5092 105.907 69.2432 105.76C69.0611 105.663 68.8792 105.558 68.6971 105.453C68.6775 105.438 68.6578 105.427 68.6357 105.414C68.6264 105.408 68.6165 105.403 68.6062 105.397C63.8596 102.668 60.1072 98.6444 57.7269 93.7606C57.7024 93.7115 57.6779 93.6607 57.6534 93.6101C57.6289 93.5593 57.6044 93.5087 57.5799 93.4596C57.503 93.2988 57.4261 93.1311 57.3491 92.9634L57.3489 92.9629C57.1949 92.6339 57.0549 92.3052 56.9218 91.9692C56.9148 91.9484 56.9061 91.9273 56.8973 91.9062C56.8886 91.8854 56.8798 91.8643 56.8728 91.8434C56.3828 90.6187 55.9767 89.3385 55.6687 88.03C55.6652 88.023 55.6635 88.0141 55.6617 88.0055C55.66 87.9966 55.6582 87.988 55.6547 87.9811C55.5707 87.6171 55.4937 87.2531 55.4237 86.8824C55.4097 86.8089 55.3974 86.7356 55.3852 86.662C55.3729 86.5884 55.3607 86.5151 55.3467 86.4415C55.3047 86.2108 55.2697 85.9798 55.2347 85.7491L55.2347 85.7488C54.7306 82.3693 54.8636 78.9545 55.6337 75.638C55.6407 75.603 55.6495 75.5663 55.6582 75.5296C55.667 75.4929 55.6757 75.4561 55.6827 75.4212L55.6827 75.4211C55.7597 75.0992 55.8367 74.7774 55.9277 74.4625C55.9977 74.1966 56.0747 73.9307 56.1588 73.6649C56.1938 73.5389 56.2358 73.413 56.2778 73.287C56.3828 72.9582 56.4948 72.6363 56.6138 72.3214C56.6278 72.2829 56.6436 72.2445 56.6593 72.2059C56.6751 72.1675 56.6908 72.1289 56.7048 72.0905C56.8308 71.7407 56.9709 71.3978 57.1179 71.055C57.1319 71.0199 57.1476 70.9849 57.1634 70.95C57.1791 70.915 57.1949 70.88 57.2089 70.845C57.3559 70.5091 57.5029 70.1803 57.6639 69.8514C57.6744 69.8304 57.6832 69.8112 57.6919 69.792C57.7007 69.7727 57.7094 69.7535 57.7199 69.7325C57.7479 69.6625 57.7829 69.5995 57.8179 69.5366C57.951 69.2636 58.091 68.9978 58.238 68.7319C58.2905 68.6409 58.3412 68.55 58.392 68.459C58.4427 68.3681 58.4935 68.2771 58.546 68.1861C58.5561 68.161 58.5698 68.1393 58.5845 68.1162C58.5903 68.1072 58.5961 68.0979 58.602 68.0882C61.3323 63.3511 65.3578 59.6007 70.2373 57.2216C70.3423 57.1657 70.4473 57.1167 70.5524 57.0677C70.6328 57.0327 70.7133 56.9942 70.7939 56.9558C70.8744 56.9173 70.9549 56.8788 71.0353 56.8438C71.3644 56.6899 71.7005 56.5499 72.0435 56.41C72.0645 56.403 72.0838 56.3942 72.103 56.3855C72.1223 56.3767 72.1415 56.368 72.1625 56.361C73.3946 55.8712 74.6758 55.4654 75.9919 55.1575C75.9949 55.1575 75.999 55.1563 76.0037 55.1549C76.0105 55.1529 76.0187 55.1505 76.027 55.1505C76.391 55.0665 76.762 54.9896 77.133 54.9196C77.2049 54.9045 77.279 54.8914 77.3538 54.8781C77.4175 54.8669 77.4818 54.8555 77.5461 54.8426C77.6651 54.8251 77.7859 54.8059 77.9066 54.7867C78.0274 54.7674 78.1482 54.7482 78.2672 54.7307C83.6999 53.919 89.2443 54.7587 94.2779 57.2287L90.0775 65.8071C87.5991 64.5896 84.9389 63.9878 82.2576 63.9948C81.3615 63.9948 80.4864 64.0648 79.6255 64.1907C79.5929 64.1973 79.5603 64.2023 79.5284 64.2071C79.4918 64.2127 79.4561 64.2183 79.4223 64.2258C79.2263 64.2538 79.0233 64.2887 78.8273 64.3307C78.7642 64.3447 78.6995 64.3587 78.6347 64.3727C78.57 64.3867 78.5052 64.4007 78.4422 64.4147C78.3722 64.4322 78.3039 64.4479 78.2356 64.4637C78.1674 64.4794 78.0992 64.4951 78.0291 64.5127C78.0013 64.5196 77.9732 64.5266 77.945 64.5336C77.8033 64.5687 77.6582 64.6048 77.5181 64.6455C77.4691 64.6596 77.4184 64.6735 77.3676 64.6876C77.3168 64.7015 77.2661 64.7156 77.2171 64.7295L77.217 64.7296C77.028 64.7856 76.839 64.8415 76.657 64.9045C76.608 64.9219 76.5607 64.9377 76.5135 64.9534C76.4662 64.9692 76.419 64.9849 76.37 65.0024C76.2089 65.0584 76.0409 65.1214 75.8799 65.1843C75.8525 65.195 75.8249 65.2056 75.797 65.2163C75.6965 65.255 75.5935 65.2945 75.4949 65.3383C75.4092 65.3704 75.3276 65.4066 75.2439 65.4437C75.2181 65.4552 75.1922 65.4667 75.1658 65.4783C74.9769 65.5552 74.7878 65.6391 74.6057 65.7302C74.5883 65.7371 74.5708 65.7459 74.5533 65.7547C74.5357 65.7633 74.5183 65.7721 74.5008 65.7791C71.1614 67.4025 68.4031 70.0404 66.6319 73.294C66.6284 73.2975 66.6267 73.3027 66.6249 73.308C66.6232 73.3133 66.6214 73.3185 66.6179 73.322C66.4919 73.5598 66.3729 73.7977 66.254 74.0356L66.2539 74.0357C66.2329 74.0777 66.2136 74.1214 66.1943 74.1651C66.1751 74.2088 66.1559 74.2526 66.1349 74.2946C66.0509 74.4695 65.9739 74.6444 65.8969 74.8193H65.8968C65.8758 74.8683 65.8566 74.9173 65.8373 74.9663C65.8181 75.0153 65.7988 75.0643 65.7778 75.1133C65.7544 75.1716 65.7304 75.2299 65.7062 75.2882C65.658 75.4048 65.6098 75.5214 65.5678 75.638C65.5573 75.6695 65.5468 75.6993 65.5363 75.729C65.5258 75.7587 65.5153 75.7885 65.5048 75.82C64.8397 77.6742 64.4757 79.6753 64.4757 81.7604C64.4757 82.6561 64.5457 83.5377 64.6717 84.3983C64.6752 84.4264 64.6805 84.4561 64.6856 84.4858C64.6909 84.5155 64.6962 84.5455 64.6997 84.5733C64.7346 84.7832 64.7697 84.9931 64.8117 85.196C64.8327 85.3151 64.8608 85.4409 64.8887 85.56C64.9122 85.6829 64.9405 85.8011 64.9698 85.9228C64.9754 85.9463 64.981 85.97 64.9867 85.9937C65.0113 86.1068 65.0429 86.2235 65.074 86.3387C65.0872 86.3874 65.1003 86.4358 65.1127 86.4835C65.1286 86.5467 65.1465 86.6076 65.1643 86.6677C65.178 86.714 65.1915 86.7597 65.2038 86.8053C65.235 86.9213 65.2718 87.0343 65.309 87.1482C65.3302 87.2131 65.3514 87.2783 65.3718 87.3442C65.4068 87.4491 65.4418 87.5541 65.4768 87.6521C65.5328 87.8131 65.5888 87.9669 65.6518 88.128C65.6798 88.1943 65.7061 88.2609 65.7323 88.3273C65.7586 88.3937 65.7849 88.4603 65.8128 88.5267C65.8339 88.5791 65.8566 88.6316 65.8794 88.6841C65.9021 88.7366 65.9248 88.789 65.9458 88.8415C66.0299 89.0375 66.1138 89.2263 66.2049 89.4154C66.2259 89.4432 66.2398 89.4712 66.2539 89.5062C67.8781 92.851 70.5243 95.6078 73.7867 97.378C74.0247 97.511 74.2697 97.6371 74.5148 97.7559C74.5847 97.7933 74.6547 97.8242 74.7248 97.8554C74.7597 97.8709 74.7948 97.8865 74.8298 97.9028C74.9908 97.9797 75.1448 98.0497 75.3059 98.1199C75.4317 98.1745 75.5619 98.2248 75.6896 98.2744C75.7253 98.2881 75.7607 98.302 75.7959 98.3157C75.901 98.3576 76.0059 98.3995 76.1179 98.4417C76.342 98.5256 76.566 98.6025 76.79 98.6724C76.839 98.6935 76.895 98.7146 76.9511 98.7285C77.2171 98.8124 77.4831 98.8895 77.7561 98.9593C77.7631 98.9629 77.7701 98.9645 77.7771 98.9665C77.7841 98.9681 77.7911 98.97 77.7982 98.9734C78.0291 99.0295 78.2672 99.0853 78.4982 99.1342C78.5448 99.1402 78.5864 99.1507 78.6313 99.1622C78.6405 99.1646 78.6498 99.167 78.6592 99.1694C78.7293 99.1833 78.801 99.1955 78.8728 99.2077C78.9445 99.22 79.0164 99.2322 79.0863 99.2463C79.1599 99.2569 79.2332 99.2708 79.3068 99.2849C79.3803 99.2988 79.4539 99.3127 79.5275 99.3232C79.6533 99.3443 79.7793 99.3582 79.9051 99.3724H79.9053C79.9638 99.3795 80.0213 99.3877 80.0788 99.3958C80.1862 99.4109 80.2928 99.426 80.4025 99.4351C80.4783 99.4423 80.5561 99.4478 80.635 99.4531C80.7085 99.4584 80.783 99.4634 80.8573 99.4701C80.9905 99.4843 81.1305 99.4982 81.2704 99.5051C81.3969 99.5145 81.5266 99.5176 81.6574 99.5207C81.7219 99.5224 81.7868 99.5238 81.8515 99.5262C81.897 99.5262 81.9445 99.5279 81.9917 99.5295C82.0389 99.5315 82.0861 99.5331 82.1316 99.5331C82.3837 99.5331 82.6355 99.5262 82.8878 99.5192H82.9717C85.5411 99.4071 88.0542 98.7424 90.3295 97.581C90.3348 97.5784 90.3391 97.5767 90.343 97.5752C90.3489 97.5729 90.3533 97.5712 90.3576 97.5669C90.5744 97.4619 90.7846 97.3431 90.9945 97.2242L91.2046 97.0982C91.3517 97.0143 91.4986 96.9302 91.6388 96.8391C91.7052 96.7972 91.7715 96.7536 91.8382 96.7098C91.9048 96.6661 91.9711 96.6223 92.0378 96.5804C92.0763 96.5559 92.1147 96.5296 92.1532 96.5034C92.1916 96.4771 92.2302 96.451 92.2687 96.4265C92.4578 96.2935 92.6469 96.1606 92.8359 96.0206C92.8429 96.0137 92.8515 96.0084 92.8604 96.0031C92.869 95.9979 92.8778 95.9926 92.8848 95.9856C94.922 94.4603 96.6233 92.5009 97.8484 90.255C97.8587 90.2339 97.8709 90.2112 97.8834 90.1886C97.8956 90.1656 97.9078 90.1431 97.9184 90.122C99.2554 87.631 100.012 84.7901 100.012 81.7746H109.568ZM100.039 71.9007H90.1922V81.7472H100.039V71.9007Z" fill="white"/>
</g>
<defs>
<radialGradient id="paint0_radial_464_4210" cx="0" cy="0" r="1" gradientUnits="userSpaceOnUse" gradientTransform="translate(82.2745 81.726) rotate(-37.606) scale(102.47)">
<stop offset="0.140625" stop-color="#CFA552"/>
<stop offset="0.449606" stop-color="#FFE297"/>
<stop offset="0.802083" stop-color="#D8B164"/>
</radialGradient>
<clipPath id="clip0_464_4210">
<rect width="164" height="164" fill="white"/>
</clipPath>
</defs>
</svg>
