<svg width="164" height="164" viewBox="0 0 164 164" fill="none" xmlns="http://www.w3.org/2000/svg">
<path d="M123 0H41C18.3563 0 0 18.3563 0 41V123C0 145.644 18.3563 164 41 164H123C145.644 164 164 145.644 164 123V41C164 18.3563 145.644 0 123 0Z" fill="white"/>
<path d="M123 0H41C18.3563 0 0 18.3563 0 41V123C0 145.644 18.3563 164 41 164H123C145.644 164 164 145.644 164 123V41C164 18.3563 145.644 0 123 0Z" fill="url(#paint0_linear_537_447)"/>
<path d="M103.189 39.6243H60.8129C49.1112 39.6243 39.625 49.1104 39.625 60.8122V103.188C39.625 114.89 49.1112 124.376 60.8129 124.376H103.189C114.891 124.376 124.377 114.89 124.377 103.188V60.8122C124.377 49.1104 114.891 39.6243 103.189 39.6243Z" fill="url(#paint1_radial_537_447)"/>
<path fill-rule="evenodd" clip-rule="evenodd" d="M137.966 78.2452C137.222 79.6131 136.31 80.8678 135.253 81.9758C136.31 83.0845 137.224 84.3388 137.966 85.7064C140.196 89.8221 140.684 94.5867 139.336 99.1183C138.154 103.095 136.542 106.976 134.544 110.658C131.547 116.161 125.856 119.617 119.629 119.739C119.579 121.972 119.097 124.201 118.198 126.279C116.657 129.844 113.948 132.822 110.567 134.663C106.888 136.666 103.012 138.279 99.0422 139.463C97.3803 139.958 95.6748 140.207 93.97 140.207C89.4636 140.207 85.1664 138.44 81.9713 135.407C81.463 135.901 80.9218 136.366 80.3484 136.796C77.3712 139.026 73.6874 140.256 69.9741 140.256C68.3443 140.256 66.7184 140.024 65.1449 139.569C60.88 138.323 56.7474 136.595 52.8524 134.433C48.178 131.832 44.9448 127.12 44.2018 121.827C44.1058 121.141 44.0535 120.459 44.0404 119.776C43.3807 119.76 42.7236 119.706 42.081 119.612C36.7219 118.843 31.9657 115.544 29.3641 110.787C27.2795 106.974 25.6089 102.934 24.3964 98.7746C22.885 93.5665 23.922 87.8768 27.1629 83.5494C27.5799 82.9938 28.0252 82.4699 28.5004 81.9743C28.0281 81.4813 27.5842 80.9581 27.1701 80.4076C23.9234 76.0759 22.8871 70.3858 24.3993 65.1832C25.6174 61.0044 27.2837 56.9643 29.3577 53.1711C31.9657 48.4124 36.719 45.1093 42.0781 44.3377C42.7949 44.2372 43.5058 44.1804 44.2062 44.1713C44.2629 41.9518 44.7451 39.7373 45.6386 37.6707C47.1801 34.108 49.8875 31.1311 53.2684 29.2893C56.9471 27.286 60.8229 25.6718 64.7928 24.4878C66.4547 23.9942 68.1602 23.7439 69.8647 23.7439C74.399 23.7439 78.7163 25.5331 81.9175 28.5945C85.1195 25.5331 89.4356 23.7439 93.97 23.7439C95.6748 23.7439 97.3803 23.9942 99.0393 24.4878C103.012 25.6718 106.888 27.286 110.564 29.2865C113.948 31.1311 116.657 34.108 118.198 37.6722C119.097 39.7508 119.579 41.9787 119.629 44.2118C125.856 44.3355 131.547 47.7909 134.541 53.2906C136.542 56.9753 138.154 60.8566 139.336 64.8318C140.684 69.3659 140.196 74.1291 137.966 78.2452ZM81.899 122.936C104.48 122.936 122.785 104.608 122.785 81.9998C122.785 59.3914 104.48 41.0632 81.899 41.0632C59.3184 41.0632 41.0128 59.3914 41.0128 81.9998C41.0128 104.608 59.3184 122.936 81.899 122.936Z" fill="white"/>
<path fill-rule="evenodd" clip-rule="evenodd" d="M109.619 81.7725C109.619 86.1117 108.612 90.2182 106.817 93.8742C106.81 93.8882 106.803 93.9024 106.795 93.9167C106.753 94.0006 106.711 94.0814 106.711 94.1417C106.694 94.1772 106.674 94.2141 106.655 94.251C106.636 94.2879 106.616 94.3251 106.599 94.3603C104.417 98.5795 101.284 102.01 97.5887 104.504C97.5675 104.518 97.5395 104.539 97.5183 104.553C97.4819 104.577 97.446 104.602 97.4104 104.626C97.3222 104.686 97.2355 104.744 97.1454 104.799C97.0432 104.863 96.9427 104.926 96.8425 104.99C96.7421 105.053 96.6418 105.116 96.5399 105.18C96.5399 105.187 96.5329 105.187 96.5257 105.194C92.3517 107.765 87.4385 109.244 82.1872 109.244C81.6803 109.244 81.1737 109.23 80.6668 109.202C80.6352 109.199 80.6017 109.197 80.5682 109.195C80.5347 109.193 80.5012 109.192 80.4697 109.188C80.3008 109.181 80.1247 109.167 79.9558 109.153C79.9127 109.149 79.8681 109.145 79.8226 109.14C79.7715 109.134 79.7194 109.128 79.6672 109.125C79.5195 109.111 79.3785 109.096 79.2378 109.082C79.1366 109.076 79.041 109.064 78.9408 109.051C78.9297 109.05 78.9184 109.049 78.907 109.047C78.8401 109.04 78.775 109.031 78.7099 109.023C78.6448 109.014 78.5797 109.005 78.5128 108.998C78.4564 108.991 78.4002 108.982 78.3439 108.973C78.2876 108.964 78.2312 108.955 78.1749 108.948C78.1116 108.938 78.0466 108.927 77.9816 108.917C77.9164 108.906 77.8513 108.896 77.7878 108.885C77.7315 108.874 77.6752 108.866 77.6189 108.857C77.5625 108.848 77.5063 108.839 77.4499 108.829C77.3866 108.816 77.3246 108.805 77.2635 108.794C77.1888 108.78 77.1152 108.767 77.0417 108.751C76.9512 108.739 76.866 108.722 76.7771 108.704C76.7621 108.701 76.7471 108.698 76.7319 108.695C76.5771 108.667 76.4152 108.632 76.2603 108.596C76.1758 108.582 76.0984 108.568 76.021 108.547C75.7816 108.491 75.5423 108.434 75.31 108.371C75.2862 108.367 75.2647 108.361 75.2442 108.355C75.2281 108.35 75.2128 108.346 75.1974 108.343L75.1963 108.343C74.9926 108.286 74.7888 108.23 74.592 108.174C74.5146 108.152 74.4442 108.131 74.3739 108.11C74.2929 108.086 74.2101 108.061 74.1274 108.036C74.0447 108.012 73.9621 107.987 73.8811 107.962C73.8137 107.945 73.7508 107.924 73.6851 107.902C73.6686 107.896 73.6518 107.89 73.6347 107.885L73.6343 107.885C73.4795 107.835 73.3249 107.786 73.1701 107.73C73.128 107.716 73.0857 107.7 73.0434 107.684C73.0012 107.668 72.959 107.652 72.9168 107.638C72.8428 107.61 72.7671 107.582 72.6915 107.554C72.6158 107.526 72.5402 107.497 72.4663 107.469C72.4307 107.456 72.3962 107.443 72.3624 107.43C72.3091 107.411 72.2575 107.392 72.2058 107.371C72.058 107.314 71.9102 107.258 71.7624 107.195C71.7201 107.177 71.6761 107.159 71.6321 107.142C71.5881 107.124 71.5441 107.106 71.5019 107.089C71.435 107.061 71.3699 107.031 71.3048 107.001C71.2397 106.971 71.1746 106.941 71.1077 106.913C70.8543 106.807 70.6011 106.687 70.3477 106.568H70.3475C70.3334 106.561 70.3176 106.553 70.3017 106.546C70.2859 106.539 70.2701 106.532 70.256 106.525C70.1927 106.497 70.1363 106.469 70.08 106.441C70.0096 106.412 69.9462 106.377 69.8829 106.342C69.6154 106.208 69.3409 106.067 69.0734 105.919C68.8904 105.821 68.7074 105.715 68.5243 105.609C68.5046 105.595 68.4849 105.583 68.4626 105.571C68.4532 105.565 68.4433 105.56 68.4329 105.553C63.6604 102.806 59.8874 98.7556 57.4941 93.839C57.4695 93.7895 57.4449 93.7384 57.4202 93.6875C57.3956 93.6364 57.371 93.5855 57.3463 93.536C57.269 93.3742 57.1916 93.2053 57.1143 93.0364L57.1141 93.036C56.9592 92.7048 56.8184 92.3738 56.6847 92.0356C56.6776 92.0146 56.6688 91.9934 56.66 91.9722C56.6512 91.9512 56.6424 91.9299 56.6354 91.909C56.1427 90.6761 55.7344 89.3872 55.4247 88.0699C55.4211 88.0629 55.4194 88.054 55.4176 88.0453C55.4159 88.0364 55.4141 88.0277 55.4106 88.0207C55.3261 87.6543 55.2487 87.2879 55.1783 86.9147C55.1642 86.8406 55.1519 86.7668 55.1396 86.6928C55.1273 86.6187 55.1149 86.5449 55.1009 86.4708C55.0586 86.2385 55.0234 86.006 54.9883 85.7737L54.9882 85.7735C54.4814 82.3712 54.6152 78.9336 55.3895 75.5948C55.3965 75.5596 55.4053 75.5226 55.4141 75.4856C55.4229 75.4487 55.4317 75.4117 55.4387 75.3765L55.4388 75.3764C55.5162 75.0524 55.5936 74.7284 55.6851 74.4114C55.7555 74.1437 55.8329 73.8761 55.9174 73.6084C55.9526 73.4816 55.9948 73.3548 56.0371 73.228C56.1427 72.897 56.2553 72.5729 56.3749 72.2559C56.389 72.2172 56.4049 72.1785 56.4207 72.1397C56.4365 72.101 56.4524 72.0622 56.4664 72.0235C56.5932 71.6713 56.7339 71.3261 56.8818 70.981C56.8958 70.9457 56.9117 70.9105 56.9275 70.8753C56.9433 70.8401 56.9592 70.8048 56.9733 70.7696C57.1211 70.4315 57.2689 70.1005 57.4308 69.7694C57.4414 69.7482 57.4501 69.7288 57.459 69.7095C57.4678 69.6902 57.4766 69.6708 57.4871 69.6496C57.5153 69.5791 57.5505 69.5158 57.5857 69.4524C57.7194 69.1776 57.8602 68.91 58.008 68.6424C58.0608 68.5507 58.1118 68.4592 58.1629 68.3676C58.2139 68.2761 58.2649 68.1845 58.3177 68.0928C58.3279 68.0676 58.3416 68.0458 58.3565 68.0225C58.3622 68.0135 58.3681 68.0041 58.374 67.9943C61.1193 63.2254 65.1667 59.4498 70.073 57.0548C70.1785 56.9985 70.2841 56.9492 70.3898 56.8999C70.4707 56.8646 70.5516 56.8259 70.6326 56.7872C70.7135 56.7484 70.7944 56.7097 70.8754 56.6745C71.2063 56.5195 71.5441 56.3786 71.889 56.2377C71.9102 56.2307 71.9295 56.2219 71.9488 56.2131C71.9683 56.2043 71.9876 56.1955 72.0087 56.1884C73.2475 55.6953 74.5357 55.2868 75.859 54.9768C75.862 54.9768 75.8662 54.9756 75.8709 54.9742C75.8778 54.9722 75.886 54.9698 75.8943 54.9698C76.2603 54.8853 76.6334 54.8078 77.0064 54.7373C77.0787 54.7221 77.1532 54.7089 77.2284 54.6956C77.2924 54.6842 77.3571 54.6728 77.4217 54.6598C77.5414 54.6422 77.6629 54.6229 77.7843 54.6035C77.9056 54.5841 78.0271 54.5648 78.1468 54.5471C83.6092 53.73 89.184 54.5753 94.2451 57.0619L90.0217 65.6979C87.5298 64.4722 84.855 63.8664 82.1591 63.8734C81.258 63.8734 80.3781 63.9439 79.5125 64.0707C79.4797 64.0773 79.447 64.0823 79.4149 64.0872C79.3781 64.0928 79.3422 64.0984 79.3082 64.106C79.1111 64.1342 78.907 64.1694 78.7099 64.2116C78.6465 64.2257 78.5814 64.2398 78.5163 64.2539C78.4512 64.2679 78.3861 64.2821 78.3227 64.2961C78.2524 64.3137 78.1837 64.3296 78.115 64.3454C78.0465 64.3613 77.9778 64.3771 77.9074 64.3948C77.8794 64.4018 77.8512 64.4088 77.8228 64.4158C77.6803 64.4512 77.5345 64.4875 77.3936 64.5286C77.3443 64.5427 77.2933 64.5567 77.2423 64.5709C77.1912 64.5849 77.1402 64.599 77.0909 64.6131L77.0908 64.6132C76.9008 64.6695 76.7108 64.7258 76.5278 64.7893C76.4786 64.8068 76.431 64.8227 76.3835 64.8385C76.336 64.8544 76.2885 64.8702 76.2392 64.8878C76.0773 64.9442 75.9083 65.0076 75.7465 65.0709C75.7189 65.0817 75.6911 65.0924 75.663 65.1032C75.562 65.1421 75.4585 65.1819 75.3593 65.226C75.2732 65.2583 75.1911 65.2948 75.1069 65.3321C75.081 65.3436 75.055 65.3552 75.0284 65.3669C74.8385 65.4443 74.6484 65.5288 74.4653 65.6205C74.4478 65.6275 74.4302 65.6363 74.4125 65.6451C74.3949 65.6538 74.3774 65.6627 74.3598 65.6697C71.0021 67.304 68.2287 69.9596 66.4478 73.2351C66.4443 73.2386 66.4426 73.2438 66.4408 73.2491C66.4391 73.2544 66.4373 73.2597 66.4338 73.2633C66.3071 73.5026 66.1874 73.7421 66.0678 73.9816L66.0677 73.9818C66.0466 74.024 66.0273 74.068 66.0079 74.112C65.9885 74.156 65.9692 74.2001 65.9481 74.2424C65.8636 74.4185 65.7862 74.5945 65.7088 74.7706H65.7087C65.6876 74.82 65.6683 74.8693 65.6489 74.9185C65.6296 74.9679 65.6102 75.0172 65.5891 75.0665C65.5656 75.1252 65.5414 75.1839 65.5171 75.2426C65.4687 75.36 65.4201 75.4774 65.3779 75.5948C65.3673 75.6265 65.3568 75.6565 65.3462 75.6864C65.3357 75.7163 65.3252 75.7463 65.3145 75.778C64.6459 77.6446 64.2798 79.6592 64.2798 81.7583C64.2798 82.66 64.3502 83.5475 64.4769 84.4139C64.4804 84.4421 64.4857 84.4721 64.4909 84.502C64.4963 84.5319 64.5016 84.562 64.5051 84.59C64.5402 84.8013 64.5755 85.0126 64.6177 85.217C64.6388 85.3368 64.667 85.4635 64.6951 85.5834C64.7187 85.7071 64.7472 85.826 64.7766 85.9486C64.7823 85.9722 64.7879 85.9961 64.7937 86.02C64.8184 86.1338 64.8502 86.2513 64.8814 86.3673C64.8947 86.4163 64.9079 86.465 64.9204 86.513C64.9363 86.5767 64.9544 86.638 64.9723 86.6985C64.986 86.7451 64.9996 86.7912 65.0119 86.837C65.0433 86.9538 65.0803 87.0676 65.1177 87.1822C65.139 87.2476 65.1603 87.3132 65.1809 87.3795C65.216 87.4852 65.2513 87.5908 65.2864 87.6895C65.3427 87.8516 65.3991 88.0065 65.4624 88.1686C65.4905 88.2354 65.5169 88.3024 65.5433 88.3693C65.5697 88.4361 65.5962 88.5031 65.6243 88.57C65.6454 88.6228 65.6683 88.6756 65.6912 88.7284C65.714 88.7813 65.7369 88.8341 65.758 88.8869C65.8425 89.0842 65.927 89.2743 66.0185 89.4647C66.0396 89.4926 66.0536 89.5209 66.0677 89.5561C67.7008 92.9233 70.3615 95.6986 73.6418 97.4807C73.8811 97.6146 74.1274 97.7415 74.3739 97.8611C74.4442 97.8988 74.5146 97.9299 74.585 97.9613C74.6202 97.9769 74.6554 97.9926 74.6906 98.009C74.8525 98.0864 75.0073 98.1569 75.1692 98.2276C75.2958 98.2826 75.4267 98.3332 75.5551 98.3831C75.591 98.3969 75.6266 98.4109 75.662 98.4246C75.7676 98.4669 75.8732 98.5091 75.9857 98.5515C76.2111 98.636 76.4363 98.7134 76.6615 98.7838C76.7108 98.805 76.7671 98.8263 76.8234 98.8403C77.0909 98.9247 77.3584 99.0024 77.6329 99.0726C77.6399 99.0762 77.647 99.0779 77.6541 99.0798C77.6611 99.0815 77.6681 99.0834 77.6752 99.0868C77.9074 99.1432 78.1468 99.1994 78.379 99.2487C78.4259 99.2547 78.4678 99.2653 78.5129 99.2769C78.5221 99.2793 78.5314 99.2817 78.541 99.2841C78.6114 99.2981 78.6835 99.3104 78.7557 99.3227C78.8278 99.335 78.9001 99.3473 78.9704 99.3615C79.0444 99.3722 79.1181 99.3862 79.1921 99.4004C79.266 99.4144 79.34 99.4284 79.4139 99.439C79.5404 99.4602 79.6672 99.4742 79.7936 99.4884H79.7939C79.8527 99.4957 79.9105 99.5039 79.9683 99.5121C80.0763 99.5273 80.1835 99.5425 80.2938 99.5516C80.3699 99.5589 80.4482 99.5644 80.5275 99.5697C80.6015 99.575 80.6764 99.5801 80.7511 99.5869C80.885 99.6011 81.0257 99.6151 81.1664 99.6221C81.2937 99.6315 81.424 99.6346 81.5555 99.6378C81.6203 99.6394 81.6856 99.6409 81.7507 99.6433C81.7965 99.6433 81.8442 99.645 81.8916 99.6467C81.9391 99.6486 81.9866 99.6503 82.0323 99.6503C82.2858 99.6503 82.539 99.6433 82.7927 99.6363H82.877C85.4605 99.5234 87.9873 98.8543 90.2751 97.6851C90.2804 97.6824 90.2848 97.6807 90.2886 97.6793C90.2946 97.6768 90.299 97.6752 90.3033 97.6708C90.5213 97.5652 90.7326 97.4455 90.9437 97.3259L91.155 97.199C91.3029 97.1146 91.4506 97.0299 91.5915 96.9382C91.6583 96.896 91.725 96.8521 91.792 96.808C91.859 96.7641 91.9257 96.7199 91.9927 96.6777C92.0315 96.6531 92.07 96.6266 92.1088 96.6003C92.1474 96.5737 92.1861 96.5474 92.2249 96.5228C92.415 96.389 92.6051 96.2551 92.7952 96.1142C92.8022 96.1072 92.8109 96.1019 92.8198 96.0966C92.8285 96.0913 92.8374 96.086 92.8444 96.079C94.8927 94.5434 96.6033 92.5709 97.8351 90.3099C97.8455 90.2887 97.8578 90.2658 97.8703 90.2431C97.8826 90.2199 97.8949 90.1972 97.9055 90.176C99.2498 87.6683 100.01 84.8083 100.01 81.7725H109.619ZM100.037 71.8324H90.1371V81.745H100.037V71.8324Z" fill="white"/>
<defs>
<linearGradient id="paint0_linear_537_447" x1="188.79" y1="193.395" x2="170.775" y2="-29.8249" gradientUnits="userSpaceOnUse">
<stop stop-color="#E7B84A"/>
<stop offset="0.449606" stop-color="#FFE8CE"/>
<stop offset="1" stop-color="#E7B84A"/>
</linearGradient>
<radialGradient id="paint1_radial_537_447" cx="0" cy="0" r="1" gradientUnits="userSpaceOnUse" gradientTransform="translate(82.1435 81.8575) rotate(-37.606) scale(53.3095)">
<stop offset="0.140625" stop-color="#AE832F"/>
<stop offset="0.802083" stop-color="#D8B164"/>
</radialGradient>
</defs>
</svg>
