<svg width="407" height="151" viewBox="0 0 407 151" fill="none" xmlns="http://www.w3.org/2000/svg">
<path fill-rule="evenodd" clip-rule="evenodd" d="M210.132 77.9872C212.42 77.11 214.49 76.0117 216.311 74.6731V79.0158H228.561V44.0662H196.9V56.2359H215.973C215.626 57.8403 215.018 59.2253 214.183 60.429L214.169 60.4481L214.156 60.4675C212.73 62.5859 210.865 64.1979 208.506 65.3337L208.495 65.339L208.484 65.3444C206.118 66.5052 203.604 67.0867 200.899 67.0867C197.136 67.0867 194.079 66.2711 191.594 64.7797C189.079 63.1842 187.184 61.088 185.86 58.4451C184.505 55.6866 183.803 52.5937 183.803 49.1083C183.803 45.5656 184.507 42.4862 185.845 39.8013C187.217 37.1554 189.16 35.0827 191.725 33.5345L191.743 33.5237L191.761 33.5126C194.245 31.9707 197.298 31.1298 201.06 31.1298C204.668 31.1298 207.501 31.8639 209.712 33.157L209.723 33.1639L209.735 33.1706C212.113 34.5357 213.922 36.3523 215.222 38.6504L216.187 40.3541H229.895L227.788 35.6293C225.541 30.5877 222.011 26.4934 217.284 23.3768C212.488 20.1245 206.87 18.5591 200.578 18.5591C194.748 18.5591 189.492 19.9199 184.935 22.7516C180.51 25.4802 177.073 29.1966 174.659 33.8443C172.251 38.4791 171.072 43.5888 171.072 49.1083C171.072 54.6141 172.218 59.7128 174.563 64.3415C176.917 68.989 180.292 72.7332 184.654 75.5198L184.676 75.5344L184.7 75.5486C189.221 78.3356 194.507 79.6575 200.418 79.6575C203.953 79.6575 207.212 79.1282 210.132 77.9872ZM313.85 18.5591C309.445 18.5591 305.334 19.3242 301.563 20.9058C297.837 22.4682 294.589 24.6785 291.854 27.5356L291.841 27.5492L291.828 27.5629C289.18 30.3913 287.136 33.6421 285.7 37.2911C284.25 40.976 283.542 44.926 283.542 49.1083C283.542 53.2438 284.252 57.1861 285.693 60.9082L285.697 60.9169L285.7 60.9255C287.136 64.5745 289.18 67.8252 291.828 70.6536L291.841 70.6674L291.854 70.681C294.589 73.5381 297.837 75.7484 301.563 77.3108C305.334 78.8924 309.445 79.6575 313.85 79.6575C318.255 79.6575 322.366 78.8924 326.137 77.3108C329.863 75.7483 333.091 73.535 335.779 70.6678C338.483 67.8399 340.56 64.5848 342 60.9255L342.003 60.9169L342.007 60.9082C343.448 57.1861 344.158 53.2438 344.158 49.1083C344.158 44.926 343.45 40.976 342 37.2911C340.56 33.6317 338.483 30.3766 335.779 27.5486C333.091 24.6815 329.863 22.4683 326.137 20.9058C322.366 19.3242 318.255 18.5591 313.85 18.5591ZM281.826 19.2008H232.038V31.6111H250.567V79.0158H263.298V31.6111H281.826V19.2008ZM365.521 19.2008H353.485V79.0158H366.216V41.0955L393.961 79.0158H406V19.2008H393.269V56.9903L365.521 19.2008ZM304.45 33.526C307 31.9702 310.09 31.1298 313.85 31.1298C317.674 31.1298 320.751 31.9747 323.229 33.5126L323.257 33.5303L323.286 33.5475C325.909 35.1035 327.871 37.1808 329.235 39.821L329.245 39.8405L329.256 39.8599C330.681 42.5334 331.427 45.591 331.427 49.1083C331.427 52.5634 330.685 55.6316 329.245 58.377L329.24 58.3862L329.235 58.3955C327.868 61.0421 325.897 63.1546 323.257 64.7667C320.775 66.2626 317.687 67.0867 313.85 67.0867C310.082 67.0867 306.984 66.2691 304.432 64.7598C301.799 63.1492 299.8 61.036 298.38 58.3858C296.991 55.6405 296.273 52.5682 296.273 49.1083C296.273 45.5824 296.996 42.5172 298.375 39.8405C299.793 37.1883 301.789 35.1049 304.414 33.5475L304.432 33.5369L304.45 33.526Z" fill="url(#paint0_linear_464_4178)"/>
<path d="M233.853 112.147C236.635 112.65 238.854 113.701 240.512 115.299C242.169 116.898 243.013 118.881 243.042 121.248C243.042 122.995 242.628 124.578 241.799 125.999C240.971 127.39 239.802 128.589 238.292 129.595C236.783 130.572 234.962 131.326 232.831 131.859C230.701 132.392 228.303 132.658 225.639 132.658C222.857 132.658 220.342 132.362 218.092 131.77C215.843 131.178 213.919 130.35 212.321 129.284C210.723 128.189 209.494 126.872 208.636 125.333C207.778 123.764 207.319 122.018 207.26 120.094H214.407C214.615 122.255 215.71 123.957 217.693 125.2C219.705 126.443 222.384 127.064 225.728 127.064C228.777 127.064 231.159 126.546 232.876 125.51C234.622 124.474 235.495 123.054 235.495 121.248C235.436 120.065 234.977 119.043 234.119 118.185C233.261 117.327 232.032 116.75 230.434 116.454L216.938 114.012C214.185 113.479 212.01 112.458 210.412 110.949C208.843 109.439 208.059 107.634 208.059 105.532C208.059 104.023 208.458 102.676 209.258 101.492C210.086 100.279 211.255 99.2576 212.765 98.4289C214.274 97.5706 216.109 96.9195 218.27 96.4755C220.43 96.0316 222.857 95.8096 225.551 95.8096C228.007 95.8096 230.227 96.0759 232.21 96.6087C234.223 97.1414 235.954 97.911 237.404 98.9173C238.854 99.894 240.009 101.093 240.867 102.513C241.725 103.904 242.214 105.473 242.332 107.219H235.229C235.11 106.361 234.785 105.577 234.252 104.866C233.719 104.156 233.024 103.549 232.166 103.046C231.307 102.543 230.301 102.158 229.147 101.892C227.992 101.596 226.72 101.433 225.329 101.403C222.28 101.344 219.883 101.685 218.137 102.425C216.42 103.164 215.562 104.2 215.562 105.532C215.562 106.479 215.902 107.308 216.583 108.018C217.293 108.699 218.27 109.173 219.513 109.439L233.853 112.147Z" fill="black"/>
<path d="M250.162 96.4755H257.488V109.972L257.443 111.925L258.02 112.325L260.462 111.97H276.844L279.197 112.325L279.73 111.925L279.685 110.016V96.4755H287.01V131.992H279.818L279.774 116.853L279.818 115.566L279.286 115.077L277.022 115.433H260.329L257.887 115.166L257.31 115.61L257.354 116.409L257.31 131.992H250.162V96.4755Z" fill="black"/>
<path d="M317.434 132.614C313.941 132.614 310.819 132.199 308.066 131.371C305.343 130.542 303.035 129.358 301.141 127.819C299.246 126.25 297.796 124.341 296.79 122.092C295.813 119.843 295.325 117.282 295.325 114.411C295.325 111.481 295.813 108.877 296.79 106.598C297.796 104.289 299.246 102.336 301.141 100.738C303.035 99.1393 305.343 97.9258 308.066 97.0971C310.819 96.2387 313.941 95.8096 317.434 95.8096C320.897 95.8096 323.975 96.2387 326.668 97.0971C329.391 97.9258 331.685 99.1393 333.549 100.738C335.414 102.336 336.82 104.289 337.767 106.598C338.714 108.877 339.158 111.481 339.099 114.411C339.069 117.282 338.551 119.843 337.545 122.092C336.539 124.341 335.103 126.25 333.239 127.819C331.374 129.358 329.11 130.542 326.446 131.371C323.812 132.199 320.808 132.614 317.434 132.614ZM317.434 127.064C319.683 127.064 321.696 126.783 323.472 126.221C325.247 125.629 326.742 124.785 327.955 123.69C329.199 122.595 330.146 121.278 330.797 119.739C331.448 118.17 331.773 116.394 331.773 114.411C331.773 112.369 331.448 110.549 330.797 108.951C330.146 107.323 329.199 105.961 327.955 104.866C326.742 103.742 325.247 102.883 323.472 102.291C321.725 101.699 319.728 101.403 317.478 101.403C315.14 101.403 313.053 101.699 311.218 102.291C309.383 102.883 307.83 103.742 306.557 104.866C305.284 105.961 304.308 107.323 303.627 108.951C302.976 110.549 302.65 112.369 302.65 114.411C302.65 116.394 302.976 118.17 303.627 119.739C304.308 121.278 305.284 122.595 306.557 123.69C307.83 124.785 309.383 125.629 311.218 126.221C313.053 126.783 315.125 127.064 317.434 127.064Z" fill="black"/>
<path d="M355.408 115.344L353.499 112.68L354.032 115.877V131.992H346.795L346.839 96.4755H367.75C372.248 96.4755 375.637 97.2894 377.916 98.9173C380.225 100.516 381.379 102.824 381.379 105.843C381.379 109.158 380.24 111.57 377.961 113.08C375.711 114.589 372.382 115.344 367.972 115.344H355.408ZM353.987 104.911V109.084L353.454 111.836H367.794C369.895 111.836 371.494 111.407 372.589 110.549C373.713 109.661 374.276 108.374 374.276 106.687C374.276 105.118 373.713 103.949 372.589 103.179C371.464 102.38 369.821 101.981 367.661 101.981H358.782L354.786 101.448L353.854 102.069L353.987 104.911Z" fill="black"/>
<path d="M112.612 1H38.2041C17.6568 1 1 17.6774 1 38.25V112.75C1 133.323 17.6568 150 38.2041 150H112.612C133.16 150 149.816 133.323 149.816 112.75V38.25C149.816 17.6774 133.16 1 112.612 1Z" fill="url(#paint1_radial_464_4178)"/>
<path fill-rule="evenodd" clip-rule="evenodd" d="M126.346 72.0887C125.67 73.3315 124.842 74.4714 123.881 75.4781C124.842 76.4853 125.672 77.6249 126.346 78.8674C128.372 82.6068 128.816 86.9356 127.591 91.0527C126.517 94.666 125.052 98.192 123.237 101.537C120.515 106.537 115.344 109.677 109.686 109.788C109.641 111.817 109.203 113.841 108.387 115.729C106.986 118.968 104.525 121.673 101.453 123.346C98.1107 125.166 94.5891 126.632 90.9826 127.708C89.4727 128.157 87.9232 128.384 86.3743 128.384C82.2801 128.384 78.3759 126.778 75.4731 124.023C75.0112 124.471 74.5196 124.893 73.9985 125.284C71.2936 127.31 67.9468 128.428 64.5732 128.428C63.0924 128.428 61.6152 128.217 60.1856 127.803C56.3108 126.671 52.5562 125.101 49.0174 123.137C44.7706 120.774 41.8331 116.493 41.1581 111.684C41.0709 111.061 41.0233 110.441 41.0114 109.821C40.4121 109.807 39.8151 109.757 39.2313 109.672C34.3623 108.973 30.0411 105.976 27.6775 101.654C25.7835 98.19 24.2657 94.5194 23.1642 90.7404C21.7909 86.0087 22.7331 80.8393 25.6776 76.9078C26.0565 76.403 26.4611 75.927 26.8928 75.4767C26.4636 75.0288 26.0603 74.5535 25.6841 74.0533C22.7344 70.1178 21.7929 64.9481 23.1668 60.2213C24.2735 56.4248 25.7874 52.7542 27.6717 49.308C30.0411 44.9845 34.3597 41.9835 39.2286 41.2825C39.8798 41.1912 40.5257 41.1396 41.1621 41.1313C41.2136 39.1148 41.6517 37.1029 42.4635 35.2253C43.864 31.9884 46.3238 29.2838 49.3954 27.6105C52.7376 25.7904 56.2589 24.3238 59.8658 23.2481C61.3757 22.7997 62.9252 22.5723 64.4737 22.5723C68.5934 22.5723 72.5158 24.1978 75.4242 26.9793C78.3333 24.1978 82.2547 22.5723 86.3743 22.5723C87.9232 22.5723 89.4727 22.7997 90.9799 23.2481C94.5891 24.3238 98.1107 25.7904 101.45 27.6079C104.525 29.2838 106.986 31.9884 108.387 35.2266C109.203 37.1151 109.641 39.1393 109.686 41.1681C115.344 41.2805 120.515 44.4198 123.235 49.4165C125.052 52.7642 126.517 56.2905 127.591 59.9021C128.816 64.0216 128.372 68.349 126.346 72.0887ZM75.4073 112.692C95.9226 112.692 112.554 96.0405 112.554 75.4999C112.554 54.9593 95.9226 38.3075 75.4073 38.3075C54.892 38.3075 38.2608 54.9593 38.2608 75.4999C38.2608 96.0405 54.892 112.692 75.4073 112.692Z" fill="white"/>
<path fill-rule="evenodd" clip-rule="evenodd" d="M100.592 75.2934C100.592 79.2356 99.6779 82.9666 98.047 86.2882C98.0406 86.3009 98.034 86.3139 98.0275 86.3268C97.9885 86.4031 97.9511 86.4765 97.9511 86.5313C97.9351 86.5635 97.9176 86.597 97.8999 86.6305C97.8824 86.6641 97.8648 86.6978 97.8486 86.7298C95.8662 90.5631 93.0204 93.6798 89.6628 95.9455C89.6436 95.9582 89.6182 95.9775 89.5989 95.9902C89.5659 96.0123 89.5332 96.0345 89.5008 96.0564C89.4207 96.1107 89.3419 96.1642 89.2601 96.2142C89.1673 96.2718 89.076 96.3295 88.9849 96.3871C88.8936 96.4447 88.8026 96.5022 88.71 96.5598C88.71 96.5662 88.7036 96.5662 88.6971 96.5727C84.9048 98.9085 80.441 100.253 75.6701 100.253C75.2095 100.253 74.7492 100.24 74.2887 100.214C74.26 100.211 74.2296 100.209 74.1991 100.208C74.1687 100.206 74.1383 100.205 74.1096 100.201C73.9562 100.195 73.7962 100.182 73.6427 100.169C73.6035 100.166 73.563 100.162 73.5217 100.157C73.4753 100.152 73.428 100.147 73.3805 100.144C73.2463 100.131 73.1183 100.118 72.9904 100.105C72.8985 100.1 72.8116 100.089 72.7205 100.077C72.7105 100.076 72.7002 100.075 72.6899 100.073C72.629 100.067 72.5699 100.059 72.5108 100.051C72.4516 100.043 72.3925 100.035 72.3317 100.028C72.2805 100.022 72.2294 100.014 72.1782 100.006C72.1271 99.9982 72.0759 99.9901 72.0247 99.9837C71.9672 99.9741 71.9082 99.9647 71.8491 99.955C71.7899 99.9454 71.7307 99.9357 71.673 99.9261C71.6219 99.9165 71.5707 99.9086 71.5196 99.9005C71.4683 99.8926 71.4172 99.8847 71.366 99.875C71.3085 99.8634 71.2522 99.8531 71.1967 99.843C71.1288 99.8308 71.062 99.8187 70.9951 99.8045C70.913 99.7935 70.8355 99.7779 70.7547 99.7615C70.7412 99.7589 70.7275 99.756 70.7137 99.7534C70.573 99.7278 70.4259 99.6958 70.2852 99.6638C70.2085 99.6508 70.1381 99.6381 70.0678 99.6188C69.8503 99.5678 69.6329 99.5165 69.4219 99.4589C69.4002 99.4553 69.3807 99.4496 69.362 99.4444C69.3475 99.4402 69.3335 99.4361 69.3195 99.4334L69.3185 99.4332C69.1334 99.3819 68.9483 99.3309 68.7695 99.2798C68.6992 99.2605 68.6352 99.2414 68.5713 99.2222C68.4977 99.1998 68.4226 99.1774 68.3474 99.1549C68.2723 99.1325 68.1972 99.1102 68.1236 99.0878C68.0624 99.0725 68.0052 99.053 67.9456 99.0328C67.9306 99.0278 67.9153 99.0225 67.8998 99.0175L67.8994 99.0172C67.7588 98.9725 67.6183 98.9278 67.4777 98.8765C67.4394 98.8638 67.401 98.8494 67.3626 98.8349C67.3242 98.8207 67.2859 98.8062 67.2475 98.7933C67.1803 98.7678 67.1116 98.7422 67.0429 98.7166C66.9741 98.6909 66.9054 98.6653 66.8382 98.6399C66.8059 98.6274 66.7746 98.616 66.7439 98.6046C66.6954 98.5868 66.6485 98.5697 66.6016 98.5502C66.4673 98.4989 66.333 98.4479 66.1987 98.3902C66.1603 98.3742 66.1203 98.3582 66.0803 98.3422C66.0404 98.3262 66.0004 98.3102 65.962 98.2942C65.9013 98.2686 65.8421 98.2414 65.783 98.2142C65.7238 98.1871 65.6647 98.1599 65.6039 98.1342C65.3737 98.0383 65.1436 97.9296 64.9134 97.8206H64.9132C64.9004 97.8143 64.886 97.8077 64.8716 97.8013C64.8573 97.795 64.8429 97.7886 64.8301 97.7823C64.7726 97.7566 64.7213 97.731 64.6702 97.7054C64.6062 97.6797 64.5486 97.6477 64.4911 97.6157C64.2481 97.4943 63.9987 97.3661 63.7557 97.2317C63.5894 97.1423 63.4231 97.0463 63.2568 96.9501C63.2389 96.9368 63.221 96.9265 63.2008 96.9148C63.1922 96.9098 63.1832 96.9048 63.1737 96.8991C58.8377 94.403 55.4099 90.7231 53.2355 86.2562C53.2131 86.2113 53.1907 86.1648 53.1683 86.1186C53.146 86.0721 53.1236 86.0259 53.1012 85.981C53.0309 85.8339 52.9606 85.6805 52.8904 85.5271L52.8902 85.5266C52.7495 85.2257 52.6216 84.925 52.5 84.6178C52.4936 84.5987 52.4857 84.5794 52.4777 84.5601C52.4697 84.5411 52.4617 84.5218 52.4553 84.5027C52.0076 83.3826 51.6367 82.2116 51.3553 81.0148C51.3521 81.0084 51.3505 81.0003 51.3489 80.9924C51.3473 80.9843 51.3457 80.9764 51.3425 80.9701C51.2658 80.6372 51.1954 80.3043 51.1315 79.9652C51.1187 79.8979 51.1075 79.8309 51.0963 79.7636C51.0851 79.6963 51.0739 79.6293 51.0611 79.562C51.0227 79.3509 50.9908 79.1397 50.9588 78.9286L50.9588 78.9284C50.4983 75.8374 50.6198 72.7141 51.3233 69.6807C51.3297 69.6487 51.3377 69.6151 51.3457 69.5815C51.3537 69.5479 51.3617 69.5143 51.3681 69.4823L51.3681 69.4823C51.4384 69.1879 51.5088 68.8936 51.5919 68.6056C51.6559 68.3623 51.7262 68.1192 51.803 67.876C51.8349 67.7608 51.8733 67.6456 51.9117 67.5304C52.0076 67.2296 52.1099 66.9352 52.2187 66.6472C52.2314 66.612 52.2458 66.5769 52.2602 66.5416C52.2746 66.5064 52.289 66.4712 52.3018 66.436C52.4169 66.1161 52.5448 65.8025 52.6791 65.4889C52.6919 65.4568 52.7063 65.4248 52.7207 65.3929C52.7351 65.3609 52.7495 65.3288 52.7622 65.2969C52.8966 64.9897 53.0308 64.6889 53.1779 64.3881C53.1875 64.3689 53.1955 64.3513 53.2035 64.3337C53.2115 64.3161 53.2195 64.2985 53.2291 64.2793C53.2547 64.2153 53.2867 64.1577 53.3186 64.1001C53.4401 63.8505 53.568 63.6073 53.7024 63.3641C53.7503 63.2809 53.7967 63.1977 53.843 63.1145C53.8894 63.0314 53.9358 62.9482 53.9837 62.8649C53.993 62.8419 54.0055 62.8221 54.0189 62.801C54.0242 62.7928 54.0295 62.7843 54.0349 62.7754C56.5291 58.4427 60.2063 55.0124 64.6638 52.8365C64.7597 52.7853 64.8556 52.7405 64.9516 52.6957C65.0251 52.6637 65.0987 52.6285 65.1723 52.5933C65.2458 52.5581 65.3193 52.5229 65.3928 52.4909C65.6934 52.3501 66.0004 52.2221 66.3138 52.0941C66.333 52.0877 66.3506 52.0797 66.3681 52.0717C66.3857 52.0637 66.4033 52.0557 66.4225 52.0493C67.548 51.6013 68.7184 51.2301 69.9207 50.9485C69.9234 50.9485 69.9271 50.9474 69.9315 50.9461C69.9377 50.9443 69.9452 50.9421 69.9527 50.9421C70.2852 50.8653 70.6242 50.7949 70.9631 50.7309C71.0288 50.7171 71.0964 50.7051 71.1648 50.693C71.223 50.6827 71.2817 50.6723 71.3404 50.6605C71.4492 50.6445 71.5595 50.6269 71.6698 50.6093C71.7801 50.5917 71.8904 50.5741 71.9992 50.5581C76.962 49.8158 82.0269 50.5837 86.6251 52.8429L82.7879 60.689C80.524 59.5754 78.0938 59.025 75.6445 59.0314C74.8258 59.0314 74.0264 59.0955 73.24 59.2106C73.2102 59.2166 73.1804 59.2212 73.1513 59.2256C73.1178 59.2307 73.0852 59.2358 73.0543 59.2427C72.8753 59.2683 72.6899 59.3003 72.5108 59.3386C72.4532 59.3515 72.3941 59.3642 72.3349 59.3771C72.2758 59.3898 72.2166 59.4027 72.159 59.4154C72.0951 59.4315 72.0327 59.4459 71.9703 59.4603C71.908 59.4747 71.8457 59.489 71.7817 59.5051C71.7562 59.5114 71.7306 59.5178 71.7048 59.5242C71.5754 59.5564 71.4429 59.5893 71.3149 59.6266C71.2701 59.6395 71.2238 59.6522 71.1774 59.6651C71.131 59.6778 71.0847 59.6907 71.0399 59.7034L71.0398 59.7035C70.8671 59.7547 70.6945 59.8058 70.5283 59.8635C70.4835 59.8794 70.4403 59.8938 70.3972 59.9082C70.354 59.9226 70.3108 59.937 70.2661 59.953C70.1189 60.0042 69.9655 60.0618 69.8184 60.1194C69.7933 60.1291 69.7681 60.1389 69.7426 60.1487C69.6508 60.184 69.5567 60.2202 69.4666 60.2602C69.3884 60.2896 69.3138 60.3227 69.2374 60.3567C69.2138 60.3671 69.1901 60.3777 69.166 60.3882C68.9934 60.4586 68.8207 60.5354 68.6544 60.6186C68.6385 60.625 68.6225 60.633 68.6065 60.641C68.5905 60.649 68.5745 60.657 68.5585 60.6634C65.508 62.1482 62.9882 64.5609 61.3702 67.5368C61.367 67.54 61.3655 67.5448 61.3638 67.5496C61.3623 67.5544 61.3607 67.5592 61.3575 67.5624C61.2424 67.7799 61.1336 67.9975 61.025 68.215L61.0249 68.2152C61.0057 68.2535 60.9881 68.2935 60.9705 68.3335C60.9529 68.3735 60.9354 68.4135 60.9162 68.452C60.8395 68.612 60.7691 68.7719 60.6988 68.9319H60.6987C60.6795 68.9767 60.662 69.0215 60.6444 69.0663C60.6268 69.1111 60.6092 69.1559 60.59 69.2008C60.5687 69.2541 60.5467 69.3074 60.5246 69.3607C60.4806 69.4674 60.4365 69.574 60.3982 69.6807C60.3886 69.7095 60.379 69.7367 60.3694 69.7639C60.3598 69.7911 60.3503 69.8183 60.3406 69.8471C59.7331 71.543 59.4005 73.3733 59.4005 75.2805C59.4005 76.0997 59.4645 76.906 59.5796 77.6932C59.5828 77.7188 59.5876 77.746 59.5923 77.7732C59.5972 77.8004 59.602 77.8278 59.6052 77.8532C59.6371 78.0452 59.6691 78.2372 59.7075 78.4228C59.7266 78.5317 59.7523 78.6468 59.7779 78.7557C59.7992 78.8681 59.8251 78.9762 59.8519 79.0875C59.857 79.109 59.8622 79.1307 59.8674 79.1524C59.8898 79.2558 59.9187 79.3625 59.9471 79.468C59.9591 79.5124 59.9711 79.5567 59.9825 79.6003C59.9969 79.6582 60.0134 79.7139 60.0296 79.7689C60.0421 79.8112 60.0544 79.853 60.0656 79.8947C60.0942 80.0007 60.1278 80.1042 60.1618 80.2083C60.1811 80.2677 60.2005 80.3273 60.2191 80.3876C60.2511 80.4835 60.2831 80.5795 60.315 80.6692C60.3662 80.8164 60.4174 80.9571 60.4749 81.1044C60.5005 81.1651 60.5245 81.2261 60.5484 81.2868C60.5725 81.3475 60.5965 81.4084 60.622 81.4691C60.6412 81.5171 60.662 81.5651 60.6828 81.6131C60.7035 81.6611 60.7243 81.7091 60.7435 81.7571C60.8203 81.9364 60.897 82.1091 60.9802 82.282C60.9994 82.3074 61.0121 82.333 61.0249 82.365C62.5086 85.4243 64.926 87.9457 67.9062 89.5649C68.1236 89.6865 68.3474 89.8018 68.5713 89.9105C68.6352 89.9447 68.6992 89.973 68.7631 90.0014C68.7951 90.0157 68.8271 90.0299 68.8591 90.0448C69.0062 90.1152 69.1468 90.1792 69.294 90.2434C69.409 90.2934 69.5278 90.3394 69.6446 90.3848C69.6772 90.3972 69.7095 90.41 69.7416 90.4224C69.8376 90.4608 69.9335 90.4992 70.0358 90.5377C70.2405 90.6144 70.4451 90.6848 70.6497 90.7488C70.6945 90.7681 70.7457 90.7873 70.7969 90.8001C71.0399 90.8768 71.2829 90.9473 71.5323 91.0111C71.5387 91.0144 71.5451 91.0159 71.5515 91.0177C71.5579 91.0192 71.5643 91.021 71.5707 91.024C71.7817 91.0753 71.9992 91.1264 72.2102 91.1711C72.2527 91.1766 72.2908 91.1862 72.3318 91.1967C72.3401 91.1989 72.3486 91.2011 72.3573 91.2033C72.4213 91.216 72.4868 91.2272 72.5524 91.2384C72.6179 91.2496 72.6835 91.2607 72.7475 91.2737C72.8147 91.2833 72.8816 91.296 72.9488 91.3089C73.016 91.3217 73.0832 91.3344 73.1504 91.344C73.2653 91.3633 73.3805 91.376 73.4954 91.3889H73.4956C73.549 91.3955 73.6016 91.403 73.6541 91.4104C73.7522 91.4242 73.8496 91.438 73.9498 91.4464C74.019 91.4529 74.0901 91.458 74.1621 91.4628C74.2293 91.4676 74.2974 91.4722 74.3653 91.4784C74.487 91.4913 74.6148 91.504 74.7426 91.5104C74.8582 91.5189 74.9766 91.5218 75.0961 91.5246C75.155 91.5261 75.2143 91.5275 75.2734 91.5296C75.315 91.5296 75.3584 91.5312 75.4015 91.5327C75.4446 91.5345 75.4877 91.536 75.5293 91.536C75.7596 91.536 75.9896 91.5296 76.2201 91.5233H76.2968C78.6439 91.4207 80.9396 90.8128 83.0182 89.7505C83.023 89.7481 83.027 89.7466 83.0305 89.7452C83.0359 89.7431 83.0399 89.7415 83.0438 89.7376C83.2419 89.6416 83.4339 89.5329 83.6256 89.4242L83.8176 89.3089C83.952 89.2322 84.0862 89.1553 84.2142 89.072C84.2748 89.0336 84.3355 88.9937 84.3963 88.9536C84.4572 88.9138 84.5178 88.8736 84.5787 88.8353C84.6139 88.8129 84.6489 88.7888 84.6842 88.7649C84.7192 88.7408 84.7544 88.7169 84.7897 88.6946C84.9624 88.573 85.1351 88.4513 85.3078 88.3233C85.3141 88.317 85.322 88.3122 85.3301 88.3073C85.338 88.3025 85.3461 88.2977 85.3524 88.2913C87.2134 86.8962 88.7676 85.1041 89.8867 83.0499C89.8962 83.0306 89.9073 83.0098 89.9187 82.9892C89.9299 82.9682 89.941 82.9476 89.9507 82.9283C91.1721 80.6499 91.8629 78.0515 91.8629 75.2934H100.592ZM91.8876 66.2624H82.8928V75.2684H91.8876V66.2624Z" fill="white"/>
<defs>
<linearGradient id="paint0_linear_464_4178" x1="441.511" y1="90.6087" x2="439.755" y2="6.94301" gradientUnits="userSpaceOnUse">
<stop stop-color="#E7B84A"/>
<stop offset="0.449606" stop-color="#FFE8CE"/>
<stop offset="1" stop-color="#E7B84A"/>
</linearGradient>
<radialGradient id="paint1_radial_464_4178" cx="0" cy="0" r="1" gradientUnits="userSpaceOnUse" gradientTransform="translate(75.6587 75.2492) rotate(-37.6402) scale(93.6497 93.6791)">
<stop offset="0.140625" stop-color="#CFA552"/>
<stop offset="0.449606" stop-color="#FFE297"/>
<stop offset="0.802083" stop-color="#D8B164"/>
</radialGradient>
</defs>
</svg>
