<svg width="300" height="300" viewBox="0 0 300 300" fill="none" xmlns="http://www.w3.org/2000/svg">
<path d="M224.5 1H75.5C34.3548 1 1 34.3548 1 75.5V224.5C1 265.645 34.3548 299 75.5 299H224.5C265.645 299 299 265.645 299 224.5V75.5C299 34.3548 265.645 1 224.5 1Z" fill="url(#paint0_radial_464_4194)"/>
<path fill-rule="evenodd" clip-rule="evenodd" d="M252.001 143.177C250.648 145.663 248.988 147.943 247.065 149.956C248.988 151.971 250.651 154.25 252.001 156.735C256.058 164.214 256.947 172.871 254.494 181.105C252.343 188.332 249.411 195.384 245.776 202.073C240.324 212.073 229.97 218.353 218.64 218.575C218.55 222.633 217.672 226.683 216.038 230.458C213.234 236.936 208.304 242.347 202.153 245.692C195.461 249.332 188.409 252.264 181.187 254.415C178.163 255.314 175.06 255.767 171.959 255.767C163.76 255.767 155.942 252.555 150.13 247.045C149.205 247.942 148.22 248.787 147.177 249.569C141.76 253.621 135.058 255.855 128.303 255.855C125.338 255.855 122.38 255.434 119.517 254.607C111.758 252.343 104.239 249.203 97.1529 245.275C88.6488 240.548 82.7665 231.986 81.4149 222.368C81.2402 221.123 81.145 219.882 81.1211 218.642C79.921 218.613 78.7255 218.514 77.5565 218.345C67.8065 216.946 59.1535 210.952 54.4204 202.308C50.6277 195.38 47.5884 188.039 45.3826 180.481C42.6328 171.017 44.5194 160.679 50.4158 152.816C51.1744 151.806 51.9845 150.854 52.849 149.953C51.9897 149.058 51.1821 148.107 50.4287 147.107C44.522 139.236 42.6367 128.896 45.3878 119.443C47.6039 111.85 50.6355 104.508 54.4088 97.616C59.1535 88.9689 67.8012 82.967 77.5512 81.565C78.8552 81.3824 80.1486 81.2792 81.4228 81.2627C81.526 77.2296 82.4033 73.2058 84.0288 69.4506C86.8334 62.9768 91.7589 57.5676 97.9098 54.221C104.602 50.5809 111.654 47.6476 118.876 45.4962C121.9 44.5994 125.003 44.1445 128.104 44.1445C136.353 44.1445 144.208 47.3957 150.032 52.9585C155.857 47.3957 163.709 44.1445 171.959 44.1445C175.06 44.1445 178.163 44.5994 181.181 45.4962C188.409 47.6476 195.461 50.5809 202.148 54.2158C208.304 57.5676 213.234 62.9768 216.038 69.4532C217.672 73.2303 218.55 77.2786 218.64 81.3361C229.97 81.5611 240.324 87.8396 245.77 97.833C249.411 104.528 252.343 111.581 254.494 118.804C256.947 127.043 256.058 135.698 252.001 143.177ZM149.998 224.385C191.079 224.385 224.383 191.081 224.383 150C224.383 108.919 191.079 75.615 149.998 75.615C108.917 75.615 75.6131 108.919 75.6131 150C75.6131 191.081 108.917 224.385 149.998 224.385Z" fill="white"/>
<path fill-rule="evenodd" clip-rule="evenodd" d="M200.431 149.587C200.431 157.472 198.6 164.934 195.334 171.577C195.321 171.602 195.308 171.628 195.295 171.654C195.217 171.807 195.142 171.953 195.142 172.063C195.11 172.127 195.075 172.195 195.039 172.262C195.004 172.329 194.969 172.396 194.937 172.46C190.967 180.127 185.268 186.36 178.545 190.891C178.506 190.917 178.455 190.955 178.417 190.981C178.351 191.025 178.285 191.069 178.221 191.113C178.06 191.222 177.902 191.329 177.738 191.429C177.553 191.544 177.37 191.659 177.187 191.775C177.005 191.89 176.822 192.005 176.637 192.12C176.637 192.133 176.624 192.133 176.611 192.146C169.017 196.818 160.078 199.506 150.525 199.506C149.603 199.506 148.681 199.48 147.759 199.429C147.701 199.423 147.64 199.419 147.579 199.416C147.518 199.413 147.457 199.41 147.4 199.403C147.093 199.391 146.772 199.365 146.465 199.339C146.387 199.333 146.306 199.324 146.223 199.315C146.13 199.305 146.035 199.295 145.94 199.288C145.671 199.263 145.415 199.237 145.159 199.211C144.975 199.2 144.801 199.178 144.618 199.155C144.598 199.152 144.578 199.15 144.557 199.147C144.435 199.135 144.317 199.118 144.198 199.103C144.08 199.086 143.962 199.071 143.84 199.057C143.737 199.045 143.635 199.029 143.533 199.013C143.43 198.997 143.328 198.981 143.225 198.968C143.11 198.949 142.992 198.93 142.873 198.911C142.755 198.891 142.636 198.872 142.521 198.853C142.418 198.833 142.316 198.818 142.214 198.801C142.111 198.786 142.009 198.77 141.906 198.751C141.791 198.727 141.678 198.707 141.567 198.687C141.431 198.662 141.297 198.638 141.163 198.609C140.999 198.588 140.844 198.556 140.682 198.524C140.655 198.518 140.628 198.513 140.6 198.507C140.318 198.456 140.024 198.392 139.742 198.328C139.588 198.302 139.447 198.277 139.306 198.238C138.871 198.136 138.436 198.033 138.013 197.918C137.97 197.911 137.931 197.9 137.893 197.889C137.864 197.881 137.836 197.873 137.808 197.867L137.806 197.867C137.435 197.764 137.065 197.662 136.707 197.56C136.566 197.522 136.438 197.483 136.31 197.445C136.162 197.4 136.012 197.355 135.861 197.31C135.711 197.266 135.561 197.221 135.413 197.176C135.291 197.145 135.176 197.106 135.057 197.066C135.027 197.056 134.996 197.045 134.965 197.035L134.964 197.035C134.683 196.946 134.401 196.856 134.12 196.754C134.043 196.728 133.966 196.699 133.889 196.67C133.813 196.642 133.736 196.613 133.659 196.587C133.524 196.536 133.387 196.485 133.249 196.434C133.111 196.382 132.974 196.331 132.839 196.28C132.775 196.255 132.712 196.232 132.65 196.21C132.553 196.174 132.46 196.14 132.365 196.101C132.097 195.998 131.828 195.896 131.559 195.781C131.482 195.749 131.402 195.717 131.322 195.685C131.242 195.653 131.162 195.621 131.085 195.589C130.963 195.538 130.845 195.483 130.726 195.429C130.608 195.375 130.489 195.32 130.368 195.269C129.907 195.077 129.446 194.86 128.985 194.642H128.985C128.959 194.629 128.93 194.616 128.901 194.603C128.873 194.59 128.844 194.578 128.818 194.565C128.703 194.514 128.6 194.462 128.498 194.411C128.37 194.36 128.255 194.296 128.139 194.232C127.653 193.989 127.153 193.733 126.667 193.464C126.334 193.285 126.001 193.093 125.668 192.901C125.632 192.874 125.596 192.853 125.555 192.83C125.538 192.82 125.52 192.81 125.501 192.799C116.819 187.807 109.954 180.447 105.6 171.513C105.556 171.423 105.511 171.33 105.466 171.238C105.421 171.145 105.376 171.052 105.331 170.962C105.191 170.668 105.05 170.361 104.909 170.055L104.909 170.054C104.627 169.452 104.371 168.851 104.128 168.236C104.115 168.198 104.099 168.159 104.083 168.121C104.067 168.083 104.051 168.044 104.038 168.006C103.142 165.766 102.399 163.424 101.835 161.03C101.829 161.017 101.826 161.001 101.822 160.985C101.819 160.969 101.816 160.953 101.81 160.941C101.656 160.275 101.515 159.609 101.387 158.931C101.361 158.796 101.339 158.662 101.317 158.528C101.294 158.393 101.272 158.259 101.246 158.124C101.169 157.702 101.105 157.28 101.041 156.858L101.041 156.857C100.119 150.675 100.363 144.429 101.771 138.362C101.784 138.298 101.8 138.231 101.816 138.163C101.832 138.096 101.848 138.029 101.861 137.965L101.861 137.965C102.002 137.376 102.143 136.788 102.309 136.212C102.437 135.725 102.578 135.239 102.732 134.752C102.796 134.522 102.873 134.292 102.949 134.061C103.142 133.46 103.346 132.871 103.564 132.295C103.59 132.225 103.619 132.154 103.647 132.084C103.676 132.013 103.705 131.943 103.731 131.873C103.961 131.233 104.217 130.605 104.486 129.978C104.512 129.914 104.541 129.85 104.569 129.786C104.598 129.722 104.627 129.658 104.653 129.594C104.922 128.98 105.191 128.378 105.485 127.777C105.504 127.738 105.52 127.703 105.536 127.668C105.552 127.633 105.568 127.598 105.588 127.559C105.639 127.431 105.703 127.316 105.767 127.201C106.01 126.701 106.266 126.215 106.535 125.729C106.631 125.562 106.724 125.396 106.817 125.23C106.91 125.063 107.003 124.897 107.099 124.73C107.117 124.684 107.142 124.645 107.169 124.602C107.18 124.586 107.19 124.569 107.201 124.551C112.196 115.886 119.559 109.025 128.485 104.673C128.677 104.571 128.869 104.481 129.062 104.392C129.209 104.328 129.356 104.257 129.503 104.187C129.651 104.117 129.798 104.046 129.945 103.982C130.547 103.701 131.162 103.445 131.789 103.189C131.828 103.176 131.863 103.16 131.898 103.144C131.933 103.128 131.968 103.112 132.007 103.099C134.261 102.203 136.604 101.461 139.012 100.898C139.017 100.898 139.025 100.895 139.033 100.893C139.046 100.889 139.061 100.885 139.076 100.885C139.742 100.731 140.421 100.59 141.099 100.462C141.231 100.435 141.366 100.411 141.503 100.386C141.62 100.366 141.737 100.345 141.855 100.322C142.073 100.29 142.294 100.254 142.514 100.219C142.735 100.184 142.956 100.149 143.174 100.117C153.112 98.632 163.254 100.168 172.462 104.686L164.778 120.378C160.245 118.151 155.378 117.051 150.474 117.063C148.834 117.063 147.234 117.191 145.659 117.422C145.599 117.434 145.539 117.443 145.481 117.452C145.414 117.462 145.349 117.472 145.287 117.486C144.928 117.537 144.557 117.601 144.198 117.678C144.083 117.703 143.965 117.729 143.846 117.755C143.728 117.78 143.609 117.806 143.494 117.831C143.366 117.863 143.241 117.892 143.116 117.921C142.991 117.95 142.867 117.979 142.739 118.011C142.688 118.023 142.636 118.036 142.585 118.049C142.325 118.113 142.06 118.179 141.804 118.254C141.714 118.279 141.621 118.305 141.528 118.331C141.435 118.356 141.343 118.382 141.253 118.407L141.253 118.407C140.907 118.51 140.561 118.612 140.229 118.727C140.139 118.759 140.052 118.788 139.966 118.817C139.88 118.846 139.793 118.875 139.703 118.907C139.409 119.009 139.102 119.124 138.807 119.239C138.757 119.259 138.706 119.278 138.655 119.298C138.471 119.369 138.283 119.441 138.103 119.521C137.946 119.58 137.797 119.646 137.644 119.714C137.596 119.735 137.549 119.756 137.501 119.777C137.155 119.918 136.809 120.071 136.476 120.238C136.444 120.251 136.412 120.267 136.38 120.283C136.348 120.298 136.316 120.314 136.284 120.327C130.176 123.297 125.13 128.122 121.89 134.074C121.883 134.081 121.88 134.09 121.877 134.1C121.874 134.109 121.871 134.119 121.864 134.125C121.634 134.56 121.416 134.995 121.199 135.431L121.198 135.431C121.16 135.508 121.125 135.588 121.089 135.668C121.054 135.748 121.019 135.828 120.981 135.904C120.827 136.224 120.686 136.544 120.545 136.864H120.545C120.507 136.954 120.472 137.044 120.436 137.133C120.401 137.223 120.366 137.312 120.328 137.402C120.285 137.509 120.241 137.615 120.197 137.722C120.108 137.935 120.02 138.149 119.943 138.362C119.924 138.419 119.905 138.474 119.886 138.528C119.867 138.583 119.847 138.637 119.828 138.695C118.612 142.087 117.946 145.747 117.946 149.561C117.946 151.2 118.074 152.812 118.304 154.387C118.311 154.438 118.32 154.493 118.33 154.547C118.339 154.601 118.349 154.656 118.355 154.707C118.419 155.091 118.483 155.475 118.56 155.846C118.599 156.064 118.65 156.294 118.701 156.512C118.744 156.737 118.796 156.953 118.849 157.175C118.86 157.218 118.87 157.262 118.88 157.305C118.925 157.512 118.983 157.726 119.04 157.936C119.064 158.025 119.088 158.114 119.111 158.201C119.14 158.317 119.173 158.428 119.205 158.538C119.23 158.623 119.255 158.707 119.277 158.79C119.335 159.002 119.402 159.209 119.47 159.417C119.509 159.536 119.548 159.655 119.585 159.776C119.649 159.968 119.713 160.16 119.777 160.339C119.879 160.633 119.982 160.915 120.097 161.209C120.148 161.331 120.196 161.453 120.244 161.574C120.292 161.695 120.34 161.817 120.392 161.939C120.43 162.035 120.472 162.131 120.513 162.227C120.555 162.323 120.596 162.419 120.635 162.515C120.789 162.873 120.942 163.219 121.109 163.564C121.147 163.615 121.173 163.667 121.198 163.731C124.17 169.849 129.01 174.892 134.978 178.13C135.413 178.374 135.862 178.604 136.31 178.821C136.438 178.89 136.566 178.946 136.694 179.003C136.758 179.032 136.822 179.06 136.886 179.09C137.181 179.231 137.462 179.359 137.757 179.487C137.987 179.587 138.225 179.679 138.459 179.77C138.524 179.795 138.589 179.82 138.653 179.845C138.846 179.922 139.038 179.999 139.242 180.076C139.652 180.229 140.062 180.37 140.472 180.498C140.561 180.537 140.664 180.575 140.766 180.601C141.253 180.754 141.74 180.895 142.239 181.023C142.252 181.029 142.265 181.032 142.278 181.036C142.29 181.039 142.303 181.042 142.316 181.049C142.739 181.151 143.174 181.253 143.597 181.343C143.682 181.354 143.758 181.373 143.84 181.394C143.857 181.398 143.874 181.403 143.891 181.407C144.019 181.433 144.15 181.455 144.282 181.477C144.413 181.5 144.544 181.522 144.672 181.548C144.807 181.567 144.941 181.593 145.076 181.618C145.21 181.644 145.345 181.669 145.479 181.689C145.709 181.727 145.94 181.753 146.17 181.778H146.171C146.278 181.792 146.383 181.806 146.488 181.821C146.684 181.849 146.879 181.877 147.08 181.893C147.219 181.906 147.361 181.916 147.505 181.926C147.64 181.936 147.776 181.945 147.912 181.957C148.156 181.983 148.412 182.008 148.668 182.021C148.899 182.038 149.136 182.044 149.376 182.05C149.493 182.053 149.612 182.055 149.731 182.06C149.814 182.06 149.901 182.063 149.987 182.066C150.073 182.069 150.16 182.072 150.243 182.072C150.704 182.072 151.165 182.06 151.626 182.047H151.78C156.48 181.842 161.077 180.626 165.239 178.501C165.249 178.497 165.257 178.494 165.264 178.491C165.275 178.487 165.283 178.484 165.291 178.476C165.687 178.284 166.072 178.066 166.456 177.849L166.84 177.618C167.109 177.465 167.378 177.311 167.634 177.144C167.756 177.068 167.877 176.988 167.999 176.908C168.121 176.828 168.242 176.748 168.364 176.671C168.435 176.626 168.505 176.578 168.575 176.53C168.645 176.482 168.716 176.434 168.787 176.39C169.132 176.146 169.478 175.903 169.824 175.647C169.837 175.634 169.853 175.625 169.869 175.615C169.885 175.606 169.901 175.596 169.913 175.583C173.64 172.793 176.752 169.209 178.993 165.1C179.012 165.062 179.034 165.02 179.057 164.979C179.08 164.937 179.102 164.896 179.121 164.857C181.567 160.3 182.95 155.104 182.95 149.587H200.431ZM183 131.525H164.988V149.537H183V131.525Z" fill="white"/>
<defs>
<radialGradient id="paint0_radial_464_4194" cx="0" cy="0" r="1" gradientUnits="userSpaceOnUse" gradientTransform="translate(150.502 149.498) rotate(-37.606) scale(187.444)">
<stop offset="0.140625" stop-color="#CFA552"/>
<stop offset="0.449606" stop-color="#FFE297"/>
<stop offset="0.802083" stop-color="#D8B164"/>
</radialGradient>
</defs>
</svg>
