<svg width="415" height="149" viewBox="0 0 415 149" fill="none" xmlns="http://www.w3.org/2000/svg">
<path d="M111.75 0H37.25C16.6774 0 0 16.6774 0 37.25V111.75C0 132.323 16.6774 149 37.25 149H111.75C132.323 149 149 132.323 149 111.75V37.25C149 16.6774 132.323 0 111.75 0Z" fill="white"/>
<path d="M111.75 0H37.25C16.6774 0 0 16.6774 0 37.25V111.75C0 132.323 16.6774 149 37.25 149H111.75C132.323 149 149 132.323 149 111.75V37.25C149 16.6774 132.323 0 111.75 0Z" fill="url(#paint0_linear_537_434)"/>
<path d="M93.75 36H55.25C44.6185 36 36 44.6185 36 55.25V93.75C36 104.381 44.6185 113 55.25 113H93.75C104.381 113 113 104.381 113 93.75V55.25C113 44.6185 104.381 36 93.75 36Z" fill="url(#paint1_radial_537_434)"/>
<path fill-rule="evenodd" clip-rule="evenodd" d="M125.346 71.0887C124.67 72.3315 123.842 73.4714 122.881 74.478C123.842 75.4853 124.672 76.6249 125.346 77.8674C127.372 81.6067 127.816 85.9355 126.591 90.0526C125.517 93.6659 124.052 97.1919 122.237 100.537C119.515 105.537 114.344 108.677 108.686 108.788C108.641 110.816 108.203 112.841 107.386 114.729C105.986 117.968 103.525 120.673 100.453 122.346C97.1107 124.166 93.5891 125.632 89.9825 126.708C88.4726 127.157 86.9231 127.383 85.3742 127.383C81.2801 127.383 77.3758 125.777 74.473 123.023C74.0112 123.471 73.5195 123.893 72.9985 124.284C70.2936 126.31 66.9468 127.427 63.5731 127.427C62.0923 127.427 60.6152 127.217 59.1856 126.803C55.3108 125.671 51.5562 124.101 48.0174 122.137C43.7706 119.774 40.8331 115.493 40.1581 110.684C40.0709 110.061 40.0233 109.441 40.0114 108.821C39.4121 108.807 38.8151 108.757 38.2313 108.672C33.3623 107.973 29.0411 104.976 26.6775 100.654C24.7835 97.1899 23.2657 93.5194 22.1642 89.7404C20.7909 85.0086 21.7331 79.8393 24.6776 75.9077C25.0565 75.4029 25.4611 74.9269 25.8928 74.4767C25.4636 74.0288 25.0603 73.5535 24.6841 73.0533C21.7344 69.1178 20.7929 63.9481 22.1668 59.2213C23.2735 55.4248 24.7874 51.7542 26.6717 48.308C29.0411 43.9845 33.3597 40.9835 38.2286 40.2825C38.8798 40.1912 39.5257 40.1396 40.1621 40.1313C40.2136 38.1148 40.6517 36.1029 41.4635 34.2253C42.864 30.9884 45.3237 28.2838 48.3954 26.6105C51.7376 24.7904 55.2589 23.3238 58.8658 22.2481C60.3756 21.7997 61.9252 21.5723 63.4737 21.5723C67.5933 21.5723 71.5157 23.1978 74.4241 25.9792C77.3332 23.1978 81.2546 21.5723 85.3742 21.5723C86.9231 21.5723 88.4726 21.7997 89.9799 22.2481C93.5891 23.3238 97.1107 24.7904 100.45 26.6079C103.525 28.2838 105.986 30.9884 107.386 34.2266C108.203 36.1151 108.641 38.1393 108.686 40.168C114.344 40.2805 119.515 43.4198 122.235 48.4165C124.052 51.7642 125.517 55.2905 126.591 58.9021C127.816 63.0215 127.372 67.349 125.346 71.0887ZM74.4073 111.692C94.9226 111.692 111.554 95.0405 111.554 74.4999C111.554 53.9593 94.9226 37.3075 74.4073 37.3075C53.892 37.3075 37.2608 53.9593 37.2608 74.4999C37.2608 95.0405 53.892 111.692 74.4073 111.692Z" fill="white"/>
<path fill-rule="evenodd" clip-rule="evenodd" d="M99.5924 74.2934C99.5924 78.2356 98.6779 81.9666 97.0469 85.2882C97.0406 85.3009 97.034 85.3138 97.0274 85.3268C96.9885 85.403 96.9511 85.4764 96.9511 85.5312C96.9351 85.5635 96.9176 85.597 96.8998 85.6305C96.8823 85.664 96.8648 85.6978 96.8486 85.7298C94.8661 89.5631 92.0203 92.6798 88.6628 94.9455C88.6435 94.9582 88.6181 94.9775 88.5989 94.9902C88.5658 95.0123 88.5332 95.0344 88.5008 95.0564C88.4207 95.1107 88.3419 95.1642 88.26 95.2142C88.1672 95.2718 88.076 95.3294 87.9849 95.3871C87.8936 95.4447 87.8026 95.5021 87.71 95.5598C87.71 95.5661 87.7036 95.5661 87.6971 95.5727C83.9048 97.9085 79.441 99.2526 74.6701 99.2526C74.2095 99.2526 73.7492 99.2397 73.2886 99.214C73.26 99.211 73.2295 99.2094 73.1991 99.2077C73.1687 99.2062 73.1383 99.2046 73.1096 99.2013C72.9561 99.195 72.7961 99.182 72.6427 99.1693C72.6035 99.1663 72.563 99.1619 72.5217 99.1573C72.4752 99.1522 72.428 99.1472 72.3805 99.1437C72.2463 99.131 72.1182 99.118 71.9904 99.1053C71.8985 99.0996 71.8116 99.0887 71.7205 99.0771C71.7104 99.0758 71.7002 99.0747 71.6899 99.0733C71.629 99.067 71.5699 99.0589 71.5108 99.051C71.4516 99.0429 71.3925 99.035 71.3317 99.0284C71.2805 99.0221 71.2293 99.0142 71.1782 99.0061C71.1271 98.9982 71.0759 98.9901 71.0247 98.9837C70.9672 98.9741 70.9081 98.9646 70.8491 98.955C70.7899 98.9454 70.7307 98.9357 70.673 98.9261C70.6218 98.9164 70.5707 98.9085 70.5196 98.9004C70.4683 98.8925 70.4172 98.8846 70.366 98.875C70.3085 98.8634 70.2522 98.8531 70.1966 98.843C70.1288 98.8307 70.0619 98.8187 69.9951 98.8044C69.9129 98.7935 69.8355 98.7779 69.7547 98.7615C69.7411 98.7588 69.7275 98.756 69.7137 98.7534C69.573 98.7277 69.4259 98.6957 69.2852 98.6637C69.2084 98.6508 69.1381 98.6381 69.0678 98.6188C68.8503 98.5677 68.6329 98.5165 68.4219 98.4588C68.4002 98.4553 68.3807 98.4496 68.362 98.4444C68.3474 98.4402 68.3335 98.436 68.3195 98.4334L68.3185 98.4332C68.1334 98.3819 67.9483 98.3308 67.7695 98.2798C67.6992 98.2605 67.6352 98.2414 67.5713 98.2221C67.4977 98.1998 67.4226 98.1774 67.3474 98.1548C67.2723 98.1325 67.1972 98.1101 67.1236 98.0878C67.0624 98.0724 67.0052 98.0529 66.9456 98.0328C66.9306 98.0277 66.9153 98.0225 66.8998 98.0174L66.8994 98.0172C66.7588 97.9725 66.6183 97.9278 66.4777 97.8765C66.4394 97.8638 66.401 97.8493 66.3626 97.8349C66.3242 97.8206 66.2859 97.8062 66.2475 97.7932C66.1803 97.7678 66.1116 97.7422 66.0428 97.7165C65.9741 97.6909 65.9054 97.6652 65.8382 97.6398C65.8059 97.6273 65.7746 97.6159 65.7439 97.6045C65.6954 97.5868 65.6485 97.5697 65.6016 97.5502C65.4673 97.4989 65.333 97.4478 65.1987 97.3902C65.1603 97.3742 65.1203 97.3582 65.0803 97.3422C65.0404 97.3262 65.0004 97.3102 64.962 97.2942C64.9012 97.2686 64.8421 97.2414 64.783 97.2142C64.7238 97.187 64.6647 97.1599 64.6039 97.1342C64.3737 97.0382 64.1436 96.9295 63.9134 96.8206H63.9132C63.9004 96.8142 63.886 96.8077 63.8716 96.8013C63.8573 96.795 63.8429 96.7886 63.8301 96.7822C63.7725 96.7566 63.7213 96.731 63.6702 96.7053C63.6062 96.6797 63.5486 96.6477 63.4911 96.6157C63.2481 96.4943 62.9987 96.3661 62.7557 96.2317C62.5894 96.1423 62.4231 96.0463 62.2568 95.9501C62.2389 95.9367 62.2209 95.9264 62.2008 95.9148C62.1922 95.9098 62.1832 95.9047 62.1737 95.899C57.8377 93.403 54.4099 89.7231 52.2355 85.2562C52.2131 85.2113 52.1907 85.1648 52.1683 85.1186C52.146 85.0721 52.1236 85.0259 52.1012 84.9809C52.0309 84.8339 51.9606 84.6805 51.8904 84.527L51.8902 84.5266C51.7495 84.2257 51.6215 83.925 51.5 83.6178C51.4936 83.5987 51.4856 83.5794 51.4777 83.5601C51.4697 83.541 51.4617 83.5218 51.4553 83.5027C51.0076 82.3826 50.6367 81.2116 50.3553 80.0148C50.3521 80.0084 50.3505 80.0003 50.3489 79.9924C50.3473 79.9843 50.3457 79.9764 50.3425 79.9701C50.2658 79.6372 50.1954 79.3043 50.1315 78.9652C50.1187 78.8979 50.1075 78.8309 50.0963 78.7636C50.0851 78.6963 50.0739 78.6292 50.0611 78.562C50.0227 78.3509 49.9908 78.1396 49.9588 77.9286L49.9588 77.9284C49.4983 74.8373 49.6198 71.7141 50.3233 68.6807C50.3297 68.6487 50.3377 68.6151 50.3457 68.5815C50.3537 68.5479 50.3617 68.5143 50.3681 68.4823L50.3681 68.4823C50.4384 68.1879 50.5088 67.8935 50.5919 67.6056C50.6559 67.3623 50.7262 67.1192 50.803 66.876C50.8349 66.7607 50.8733 66.6456 50.9117 66.5303C51.0076 66.2296 51.1099 65.9352 51.2187 65.6472C51.2314 65.612 51.2458 65.5768 51.2602 65.5416C51.2746 65.5064 51.289 65.4712 51.3018 65.436C51.4169 65.116 51.5448 64.8025 51.6791 64.4889C51.6919 64.4568 51.7063 64.4248 51.7207 64.3929C51.7351 64.3609 51.7495 64.3288 51.7622 64.2968C51.8966 63.9896 52.0308 63.6889 52.1779 63.3881C52.1875 63.3689 52.1955 63.3513 52.2035 63.3337C52.2115 63.3161 52.2195 63.2985 52.2291 63.2793C52.2547 63.2152 52.2867 63.1577 52.3186 63.1001C52.4401 62.8505 52.568 62.6073 52.7024 62.3641C52.7503 62.2809 52.7967 62.1977 52.843 62.1145C52.8894 62.0313 52.9358 61.9482 52.9837 61.8649C52.9929 61.8419 53.0055 61.8221 53.0189 61.8009C53.0242 61.7928 53.0295 61.7843 53.0349 61.7753C55.529 57.4427 59.2063 54.0124 63.6638 51.8364C63.7597 51.7853 63.8556 51.7405 63.9516 51.6957C64.0251 51.6637 64.0986 51.6285 64.1723 51.5933C64.2458 51.5581 64.3193 51.5229 64.3928 51.4909C64.6934 51.3501 65.0004 51.2221 65.3138 51.0941C65.333 51.0877 65.3505 51.0797 65.3681 51.0717C65.3857 51.0637 65.4033 51.0557 65.4225 51.0493C66.548 50.6013 67.7184 50.2301 68.9207 49.9485C68.9234 49.9485 68.9271 49.9474 68.9314 49.9461C68.9377 49.9443 68.9452 49.9421 68.9527 49.9421C69.2852 49.8653 69.6242 49.7949 69.9631 49.7309C70.0288 49.7171 70.0964 49.7051 70.1648 49.693C70.2229 49.6827 70.2817 49.6723 70.3404 49.6605C70.4491 49.6445 70.5595 49.6269 70.6698 49.6093C70.7801 49.5917 70.8904 49.5741 70.9992 49.5581C75.9619 48.8158 81.0268 49.5837 85.625 51.8429L81.7879 59.689C79.5239 58.5754 77.0938 58.025 74.6444 58.0314C73.8258 58.0314 73.0264 58.0955 72.2399 58.2106C72.2102 58.2166 72.1804 58.2212 72.1513 58.2256C72.1178 58.2307 72.0852 58.2358 72.0543 58.2427C71.8753 58.2683 71.6899 58.3003 71.5108 58.3386C71.4532 58.3515 71.394 58.3642 71.3349 58.3771C71.2758 58.3898 71.2166 58.4027 71.159 58.4154C71.0951 58.4314 71.0327 58.4458 70.9703 58.4602C70.908 58.4746 70.8457 58.489 70.7817 58.5051C70.7562 58.5114 70.7306 58.5178 70.7048 58.5242C70.5753 58.5563 70.4429 58.5893 70.3148 58.6266C70.2701 58.6395 70.2238 58.6522 70.1774 58.6651C70.131 58.6778 70.0846 58.6906 70.0399 58.7034L70.0398 58.7035C69.8671 58.7547 69.6945 58.8058 69.5283 58.8635C69.4835 58.8794 69.4403 58.8938 69.3972 58.9082C69.3539 58.9226 69.3108 58.937 69.266 58.953C69.1189 59.0042 68.9654 59.0618 68.8184 59.1194C68.7933 59.1291 68.7681 59.1389 68.7426 59.1487C68.6508 59.184 68.5567 59.2202 68.4666 59.2602C68.3884 59.2896 68.3138 59.3227 68.2373 59.3567C68.2138 59.3671 68.1901 59.3777 68.166 59.3882C67.9934 59.4586 67.8207 59.5354 67.6544 59.6186C67.6385 59.625 67.6225 59.633 67.6065 59.641C67.5904 59.649 67.5745 59.657 67.5585 59.6634C64.508 61.1482 61.9882 63.5609 60.3702 66.5368C60.367 66.54 60.3655 66.5447 60.3638 66.5496C60.3623 66.5544 60.3606 66.5591 60.3575 66.5624C60.2424 66.7799 60.1336 66.9974 60.025 67.215L60.0249 67.2152C60.0057 67.2535 59.9881 67.2935 59.9705 67.3335C59.9529 67.3735 59.9354 67.4135 59.9162 67.452C59.8395 67.6119 59.7691 67.7719 59.6988 67.9319H59.6987C59.6795 67.9767 59.662 68.0215 59.6444 68.0663C59.6268 68.1111 59.6092 68.1559 59.59 68.2007C59.5687 68.2541 59.5467 68.3074 59.5246 68.3607C59.4806 68.4674 59.4365 68.574 59.3982 68.6807C59.3886 68.7095 59.379 68.7367 59.3694 68.7639C59.3598 68.7911 59.3502 68.8183 59.3406 68.8471C58.7331 70.543 58.4005 72.3733 58.4005 74.2805C58.4005 75.0997 58.4645 75.906 58.5796 76.6932C58.5828 76.7188 58.5876 76.746 58.5923 76.7732C58.5972 76.8003 58.602 76.8277 58.6051 76.8532C58.6371 77.0452 58.6691 77.2371 58.7075 77.4228C58.7266 77.5317 58.7523 77.6467 58.7779 77.7557C58.7992 77.8681 58.8251 77.9761 58.8519 78.0875C58.857 78.109 58.8621 78.1306 58.8674 78.1523C58.8898 78.2558 58.9187 78.3625 58.9471 78.4679C58.9591 78.5124 58.9711 78.5567 58.9825 78.6003C58.9969 78.6582 59.0134 78.7138 59.0296 78.7688C59.0421 78.8111 59.0544 78.853 59.0656 78.8946C59.0941 79.0007 59.1278 79.1042 59.1618 79.2083C59.1811 79.2676 59.2005 79.3273 59.2191 79.3875C59.2511 79.4835 59.2831 79.5795 59.315 79.6692C59.3662 79.8164 59.4174 79.9571 59.4749 80.1044C59.5005 80.1651 59.5245 80.226 59.5484 80.2867C59.5724 80.3475 59.5965 80.4084 59.622 80.4691C59.6412 80.5171 59.662 80.5651 59.6828 80.6131C59.7035 80.6611 59.7243 80.7091 59.7435 80.7571C59.8203 80.9363 59.897 81.109 59.9801 81.2819C59.9993 81.3074 60.0121 81.333 60.0249 81.365C61.5086 84.4243 63.926 86.9457 66.9062 88.5648C67.1236 88.6865 67.3474 88.8018 67.5713 88.9105C67.6352 88.9447 67.6992 88.9729 67.7631 89.0014C67.7951 89.0157 67.8271 89.0299 67.859 89.0448C68.0062 89.1152 68.1468 89.1792 68.294 89.2434C68.409 89.2933 68.5278 89.3394 68.6445 89.3847C68.6771 89.3972 68.7095 89.4099 68.7416 89.4224C68.8376 89.4608 68.9335 89.4991 69.0358 89.5377C69.2405 89.6144 69.4451 89.6848 69.6497 89.7487C69.6945 89.768 69.7456 89.7873 69.7968 89.8C70.0399 89.8767 70.2829 89.9473 70.5323 90.0111C70.5387 90.0144 70.5451 90.0159 70.5515 90.0177C70.5579 90.0192 70.5643 90.0209 70.5707 90.024C70.7817 90.0753 70.9992 90.1264 71.2102 90.1711C71.2527 90.1765 71.2908 90.1862 71.3318 90.1967C71.3401 90.1989 71.3486 90.2011 71.3573 90.2033C71.4212 90.216 71.4868 90.2272 71.5523 90.2384C71.6179 90.2495 71.6835 90.2607 71.7474 90.2736C71.8146 90.2833 71.8816 90.296 71.9488 90.3089C72.016 90.3216 72.0832 90.3343 72.1504 90.344C72.2653 90.3633 72.3805 90.376 72.4954 90.3889H72.4956C72.549 90.3955 72.6015 90.4029 72.6541 90.4104C72.7521 90.4242 72.8495 90.438 72.9498 90.4463C73.019 90.4529 73.0901 90.458 73.1621 90.4628C73.2293 90.4676 73.2974 90.4722 73.3653 90.4783C73.487 90.4913 73.6148 90.504 73.7426 90.5103C73.8582 90.5189 73.9766 90.5217 74.0961 90.5246C74.155 90.5261 74.2143 90.5274 74.2734 90.5296C74.315 90.5296 74.3584 90.5312 74.4015 90.5327C74.4446 90.5344 74.4877 90.536 74.5293 90.536C74.7596 90.536 74.9896 90.5296 75.2201 90.5233H75.2967C77.6439 90.4207 79.9396 89.8127 82.0182 88.7505C82.023 88.7481 82.0269 88.7465 82.0304 88.7452C82.0359 88.743 82.0398 88.7415 82.0438 88.7375C82.2419 88.6416 82.4339 88.5329 82.6256 88.4241L82.8176 88.3089C82.952 88.2322 83.0861 88.1552 83.2142 88.072C83.2748 88.0336 83.3355 87.9937 83.3963 87.9536C83.4572 87.9137 83.5178 87.8736 83.5786 87.8353C83.6139 87.8129 83.6489 87.7888 83.6841 87.7649C83.7192 87.7408 83.7544 87.7169 83.7897 87.6946C83.9624 87.5729 84.1351 87.4513 84.3078 87.3233C84.3141 87.317 84.322 87.3121 84.3301 87.3073C84.338 87.3025 84.3461 87.2977 84.3524 87.2913C86.2134 85.8961 87.7675 84.1041 88.8867 82.0499C88.8961 82.0306 88.9073 82.0098 88.9187 81.9892C88.9298 81.9681 88.941 81.9475 88.9506 81.9283C90.172 79.6499 90.8629 77.0515 90.8629 74.2934H99.5924ZM90.8876 65.2624H81.8928V74.2684H90.8876V65.2624Z" fill="white"/>
<path fill-rule="evenodd" clip-rule="evenodd" d="M223.238 76.114C221.417 77.4526 219.348 78.5509 217.06 79.4281C214.14 80.569 210.881 81.0984 207.346 81.0984C201.435 81.0984 196.148 79.7765 191.627 76.9894L191.604 76.9753L191.581 76.9607C187.22 74.1741 183.844 70.4299 181.49 65.7824C179.146 61.1537 178 56.055 178 50.5492C178 45.0297 179.179 39.92 181.586 35.2853C184.001 30.6375 187.438 26.9211 191.862 24.1925C196.42 21.3608 201.675 20 207.506 20C213.798 20 219.416 21.5654 224.212 24.8177C228.938 27.9343 232.469 32.0286 234.716 37.0702L236.822 41.795H223.114L222.15 40.0913C220.849 37.7932 219.041 35.9766 216.663 34.6116L216.651 34.6048L216.639 34.5979C214.429 33.3049 211.596 32.5707 207.987 32.5707C204.226 32.5707 201.173 33.4116 198.689 34.9535L198.671 34.9646L198.653 34.9755C196.088 36.5236 194.144 38.5963 192.773 41.2422C191.435 43.9271 190.731 47.0065 190.731 50.5492C190.731 54.0346 191.433 57.1275 192.788 59.886C194.111 62.5289 196.007 64.6251 198.522 66.2206C201.006 67.712 204.063 68.5276 207.827 68.5276C210.531 68.5276 213.046 67.9461 215.412 66.7853L215.423 66.7799L215.434 66.7745C217.793 65.6388 219.657 64.0268 221.084 61.9084L221.097 61.889L221.11 61.8698C221.946 60.6662 222.554 59.2811 222.901 57.6768H203.828V45.5071H235.488V80.4567H223.238V76.114ZM308.49 22.3467C312.262 20.7651 316.373 20 320.778 20C325.183 20 329.293 20.7651 333.065 22.3467C336.791 23.9092 340.019 26.1224 342.707 28.9896C345.411 31.8175 347.488 35.0726 348.928 38.732C350.378 42.4169 351.086 46.3669 351.086 50.5492C351.086 54.6847 350.375 58.627 348.934 62.3491L348.931 62.3577L348.928 62.3664C347.488 66.0257 345.411 69.2807 342.707 72.1087C340.019 74.9759 336.791 77.1891 333.065 78.7516C329.293 80.3333 325.183 81.0984 320.778 81.0984C316.373 81.0984 312.262 80.3333 308.49 78.7516C304.765 77.1893 301.517 74.9789 298.781 72.1219L298.768 72.1083L298.755 72.0945C296.107 69.2661 294.063 66.0154 292.628 62.3664L292.624 62.3577L292.621 62.3491C291.18 58.627 290.47 54.6847 290.47 50.5492C290.47 46.3669 291.178 42.4169 292.628 38.732C294.063 35.083 296.107 31.8323 298.755 29.0038L298.768 28.9901L298.781 28.9765C301.517 26.1194 304.765 23.9091 308.49 22.3467ZM238.966 20.6417H288.754V33.052H270.225V80.4567H257.494V33.052H238.966V20.6417ZM360.413 20.6417H372.449L400.197 58.4312V20.6417H412.928V80.4567H400.888L373.144 42.5364V80.4567H360.413V20.6417ZM320.778 32.5707C317.018 32.5707 313.927 33.4111 311.377 34.9669L311.36 34.9778L311.342 34.9884C308.716 36.5458 306.721 38.6292 305.302 41.2814C303.924 43.9581 303.201 47.0233 303.201 50.5492C303.201 54.0091 303.918 57.0814 305.308 59.8267C306.727 62.4769 308.726 64.5901 311.359 66.2007C313.912 67.71 317.01 68.5276 320.778 68.5276C324.614 68.5276 327.702 67.7035 330.185 66.2076C332.824 64.5955 334.795 62.483 336.163 59.8364L336.168 59.8271L336.172 59.8179C337.613 57.0725 338.355 54.0043 338.355 50.5492C338.355 47.0319 337.609 43.9743 336.183 41.3008L336.173 41.2814L336.163 41.2619C334.799 38.6217 332.837 36.5444 330.214 34.9884L330.185 34.9712L330.156 34.9535C327.679 33.4156 324.601 32.5707 320.778 32.5707Z" fill="url(#paint2_linear_537_434)"/>
<path d="M195.349 135.839C201.587 135.839 205.857 132.323 205.857 127.174C205.857 122.987 203.303 120.35 198.196 118.801L192.628 117.127C189.572 116.248 187.94 114.406 187.94 112.019C187.94 109.089 190.41 107.122 194.177 107.122C197.987 107.122 200.833 109.131 202.131 112.815L205.606 111.182C204.182 107.038 199.871 103.647 194.135 103.647C188.149 103.647 183.963 107.205 183.963 112.271C183.963 116.122 186.475 119.262 191.456 120.727L197.275 122.485C200.373 123.406 201.88 124.829 201.88 127.467C201.88 130.355 199.284 132.365 195.349 132.365C191.205 132.365 187.982 130.104 186.516 125.834L183 127.383C184.507 132.113 189.238 135.839 195.349 135.839Z" fill="black"/>
<path d="M249.679 135.337H253.656V122.192H269.48V135.337H273.457V104.149H269.48V118.717H253.656V104.149H249.679V135.337Z" fill="black"/>
<path d="M333.267 135.839C342.1 135.839 349.091 129.057 349.091 119.722C349.091 110.429 342.1 103.647 333.267 103.647C324.476 103.647 317.485 110.387 317.485 119.722C317.485 129.099 324.476 135.839 333.267 135.839ZM333.267 132.155C326.401 132.155 321.462 126.671 321.462 119.722C321.462 112.857 326.36 107.331 333.267 107.331C340.216 107.331 345.114 112.857 345.114 119.722C345.114 126.671 340.174 132.155 333.267 132.155Z" fill="black"/>
<path d="M393.148 135.337H397.125V123.364H404.283C410.688 123.364 415 119.597 415 113.778C415 107.917 410.646 104.149 404.283 104.149H393.148V135.337ZM397.125 119.89V107.624H404.283C408.26 107.624 410.897 110.094 410.897 113.736C410.897 117.42 408.26 119.89 404.283 119.89H397.125Z" fill="black"/>
<defs>
<linearGradient id="paint0_linear_537_434" x1="171.522" y1="175.706" x2="155.155" y2="-27.0969" gradientUnits="userSpaceOnUse">
<stop stop-color="#E7B84A"/>
<stop offset="0.449606" stop-color="#FFE8CE"/>
<stop offset="1" stop-color="#E7B84A"/>
</linearGradient>
<radialGradient id="paint1_radial_537_434" cx="0" cy="0" r="1" gradientUnits="userSpaceOnUse" gradientTransform="translate(74.6296 74.3704) rotate(-37.606) scale(48.4336)">
<stop offset="0.140625" stop-color="#AE832F"/>
<stop offset="0.802083" stop-color="#D8B164"/>
</radialGradient>
<linearGradient id="paint2_linear_537_434" x1="448.439" y1="92.0495" x2="446.683" y2="8.38393" gradientUnits="userSpaceOnUse">
<stop stop-color="#E7B84A"/>
<stop offset="0.449606" stop-color="#FFE8CE"/>
<stop offset="1" stop-color="#E7B84A"/>
</linearGradient>
</defs>
</svg>
