<svg width="637" height="243" viewBox="0 0 637 243" fill="none" xmlns="http://www.w3.org/2000/svg">
<path fill-rule="evenodd" clip-rule="evenodd" d="M246.92 121.621C246.92 140.793 242.395 158.937 234.326 175.09C234.294 175.152 234.262 175.215 234.229 175.278C234.037 175.648 233.851 176.006 233.851 176.272C233.772 176.429 233.686 176.592 233.598 176.755C233.511 176.918 233.425 177.082 233.345 177.238C223.536 195.879 209.456 211.036 192.844 222.054C192.749 222.116 192.623 222.21 192.528 222.271C192.365 222.379 192.203 222.487 192.043 222.593C191.647 222.858 191.257 223.118 190.852 223.361C190.392 223.641 189.941 223.921 189.49 224.202C189.039 224.482 188.588 224.761 188.13 225.041C188.13 225.072 188.099 225.072 188.066 225.104C169.304 236.464 147.218 243 123.614 243C121.335 243 119.058 242.937 116.779 242.812C116.637 242.798 116.487 242.79 116.336 242.782C116.185 242.774 116.035 242.767 115.893 242.751C115.134 242.72 114.342 242.657 113.583 242.595C113.389 242.58 113.189 242.559 112.984 242.536C112.755 242.512 112.521 242.487 112.286 242.47C111.622 242.408 110.988 242.346 110.356 242.284C109.901 242.256 109.471 242.203 109.02 242.146C108.971 242.14 108.92 242.135 108.869 242.128C108.568 242.097 108.275 242.058 107.983 242.019C107.69 241.98 107.398 241.942 107.097 241.91C106.843 241.879 106.59 241.84 106.337 241.801C106.084 241.763 105.831 241.723 105.578 241.692C105.293 241.645 105.001 241.6 104.709 241.553C104.416 241.506 104.123 241.459 103.838 241.412C103.585 241.365 103.332 241.327 103.079 241.287C102.825 241.249 102.572 241.211 102.319 241.164C102.034 241.107 101.756 241.057 101.481 241.008C101.145 240.948 100.815 240.89 100.484 240.82C100.077 240.767 99.6942 240.692 99.2944 240.612C99.2273 240.599 99.1598 240.585 99.0915 240.572C98.3956 240.447 97.6677 240.292 96.9717 240.136C96.5917 240.073 96.2438 240.012 95.8958 239.918C94.8199 239.669 93.744 239.42 92.7001 239.14C92.5929 239.123 92.4963 239.095 92.4039 239.069C92.3318 239.049 92.2627 239.029 92.1937 239.016L92.1888 239.015C91.2729 238.766 90.3571 238.517 89.4724 238.269C89.1244 238.175 88.8079 238.082 88.4919 237.989C88.1277 237.88 87.7559 237.771 87.384 237.661C87.0122 237.553 86.6408 237.444 86.2767 237.335C85.974 237.261 85.691 237.166 85.396 237.068C85.3216 237.043 85.246 237.018 85.1692 236.993L85.1673 236.992C84.4717 236.775 83.7765 236.557 83.0809 236.308C82.8914 236.246 82.7014 236.176 82.5115 236.105C82.3215 236.036 82.132 235.966 81.942 235.903C81.6098 235.779 81.2695 235.655 80.9296 235.53C80.5893 235.405 80.2493 235.28 79.9171 235.157C79.7571 235.096 79.6023 235.041 79.4503 234.985C79.2107 234.899 78.9787 234.816 78.7463 234.721C78.0819 234.472 77.4173 234.223 76.7529 233.943C76.563 233.865 76.3653 233.787 76.1673 233.71C75.9696 233.632 75.772 233.554 75.582 233.476C75.2814 233.351 74.9888 233.219 74.6961 233.087C74.4035 232.955 74.1109 232.823 73.8102 232.698C72.6713 232.231 71.5328 231.703 70.3938 231.173H70.393C70.3296 231.142 70.2584 231.11 70.1873 231.079C70.1161 231.048 70.045 231.017 69.9816 230.986C69.697 230.862 69.4436 230.737 69.1906 230.612C68.8741 230.488 68.5892 230.332 68.3047 230.176C67.1023 229.586 65.8683 228.962 64.666 228.309C63.843 227.874 63.0206 227.407 62.1978 226.94C62.1092 226.875 62.0203 226.825 61.9204 226.768C61.8781 226.744 61.8336 226.719 61.7867 226.691C40.3338 214.553 23.3742 196.657 12.6161 174.934C12.5054 174.716 12.3946 174.49 12.2838 174.265C12.1731 174.039 12.0624 173.814 11.9517 173.596C11.6039 172.881 11.2563 172.135 10.9087 171.389L10.9076 171.386C10.2114 169.923 9.57859 168.461 8.9774 166.967C8.94578 166.874 8.90621 166.78 8.86668 166.686C8.82712 166.594 8.78755 166.5 8.7559 166.407C6.54105 160.96 4.70585 155.265 3.31363 149.445C3.29781 149.414 3.2899 149.375 3.28199 149.336C3.27408 149.297 3.26616 149.258 3.25035 149.228C2.87065 147.609 2.5226 145.99 2.20618 144.341C2.14291 144.014 2.08753 143.688 2.03216 143.36C1.97679 143.033 1.92142 142.707 1.85814 142.38C1.6683 141.354 1.51011 140.326 1.35192 139.3L1.35188 139.299C-0.926286 124.267 -0.325104 109.078 3.15543 94.3265C3.18706 94.171 3.22662 94.0075 3.26617 93.8441C3.30572 93.681 3.34526 93.5176 3.37691 93.362L3.37694 93.3617C3.72498 91.9301 4.07302 90.4986 4.48438 89.0982C4.80075 87.9153 5.14882 86.7328 5.52853 85.5502C5.68672 84.9898 5.87656 84.4298 6.06644 83.8693C6.54104 82.4068 7.0473 80.975 7.5852 79.5745C7.64846 79.4034 7.71966 79.2324 7.79084 79.0609C7.86205 78.89 7.93323 78.7185 7.99652 78.5475C8.56607 76.9915 9.19892 75.4665 9.86336 73.9415C9.92665 73.7856 9.99782 73.6301 10.069 73.4746C10.1402 73.3191 10.2114 73.1631 10.2747 73.0076C10.9392 71.5137 11.6036 70.0511 12.3314 68.5882C12.3788 68.4948 12.4183 68.4092 12.458 68.3237C12.4975 68.2382 12.537 68.1527 12.5845 68.0592C12.7111 67.7478 12.8693 67.4678 13.0275 67.1878C13.6287 65.9739 14.2615 64.7914 14.926 63.6088C15.1633 63.2039 15.3926 62.7994 15.622 62.3948C15.8514 61.9904 16.0809 61.5859 16.3181 61.1809C16.3637 61.0692 16.4257 60.973 16.4923 60.8699C16.5182 60.8301 16.5447 60.7888 16.5712 60.7454C28.9114 39.6753 47.105 22.9937 69.1591 12.4119C69.6335 12.163 70.1081 11.945 70.583 11.7272C70.9466 11.5716 71.3104 11.4004 71.6746 11.2293C72.0384 11.0581 72.4021 10.8869 72.7658 10.7313C74.2532 10.0466 75.772 9.42414 77.3224 8.8017C77.4173 8.77056 77.5043 8.73166 77.5912 8.69277C77.6784 8.65387 77.7653 8.61495 77.8603 8.58386C83.4289 6.40526 89.2194 4.60017 95.1678 3.23076C95.1813 3.23076 95.1998 3.22542 95.2212 3.21916C95.252 3.21032 95.2891 3.19964 95.3263 3.19964C96.9717 2.82616 98.6485 2.48382 100.325 2.17259C100.65 2.10528 100.985 2.04707 101.323 1.98812C101.611 1.93804 101.902 1.88741 102.192 1.83023C102.73 1.75243 103.276 1.66685 103.822 1.58126C104.367 1.49567 104.913 1.41008 105.452 1.33228C130.005 -2.27795 155.065 1.45676 177.815 12.4431L158.83 50.5992C147.629 45.1839 135.605 42.5074 123.487 42.5384C119.437 42.5384 115.482 42.8498 111.59 43.4099C111.443 43.4389 111.296 43.4612 111.152 43.4827C110.986 43.5078 110.825 43.5324 110.672 43.5658C109.786 43.6903 108.869 43.8458 107.983 44.0324C107.698 44.0948 107.405 44.1569 107.113 44.2194C106.82 44.2814 106.527 44.3439 106.242 44.4059C105.926 44.4838 105.618 44.5538 105.309 44.6239C105 44.6939 104.692 44.7639 104.376 44.8418C104.25 44.8728 104.123 44.9038 103.995 44.9349C103.355 45.0912 102.699 45.2515 102.066 45.4329C101.844 45.4953 101.615 45.5574 101.386 45.6198C101.156 45.6819 100.927 45.7443 100.705 45.8063L100.705 45.8068C99.8505 46.0557 98.9965 46.3043 98.1741 46.5848C97.9526 46.6623 97.7387 46.7323 97.5254 46.8023C97.3116 46.8724 97.0981 46.9424 96.8767 47.0203C96.1488 47.2693 95.3894 47.5493 94.6619 47.8293C94.5378 47.8766 94.4129 47.924 94.2868 47.9717C93.8325 48.1435 93.3673 48.3194 92.9215 48.5142C92.5344 48.657 92.1654 48.8182 91.7871 48.9831C91.6707 49.0341 91.5534 49.0854 91.4342 49.1367C90.5802 49.4787 89.7257 49.8523 88.9029 50.2572C88.8241 50.2882 88.7449 50.3272 88.6657 50.3661C88.5865 50.4047 88.5076 50.4437 88.4285 50.4747C73.3357 57.6954 60.8689 69.4286 52.8636 83.9008C52.8478 83.9163 52.8401 83.9393 52.832 83.9628C52.8244 83.9862 52.8162 84.0094 52.8005 84.0252C52.231 85.0828 51.6931 86.1408 51.1556 87.1989L51.1552 87.1997C51.0602 87.3862 50.9732 87.5807 50.8859 87.7752C50.7991 87.9697 50.7122 88.1642 50.6172 88.3512C50.2377 89.1292 49.8897 89.9071 49.5417 90.6852H49.5413C49.4463 90.9031 49.3595 91.1211 49.2725 91.3387C49.1857 91.5566 49.0984 91.7746 49.0034 91.9926C48.8979 92.2519 48.7892 92.5113 48.68 92.7706C48.4622 93.2892 48.244 93.8079 48.0544 94.3265C48.0067 94.4666 47.9594 94.599 47.9117 94.7311C47.8644 94.8635 47.8172 94.9959 47.7694 95.136C44.7637 103.383 43.1184 112.284 43.1184 121.559C43.1184 125.543 43.4348 129.464 44.0042 133.292C44.02 133.417 44.0439 133.549 44.0673 133.681C44.0912 133.813 44.115 133.946 44.1307 134.07C44.2887 135.004 44.4472 135.937 44.6371 136.84C44.7318 137.37 44.8587 137.929 44.9852 138.459C45.091 139.006 45.2191 139.531 45.3514 140.072C45.3768 140.177 45.4023 140.282 45.4281 140.388C45.5393 140.891 45.682 141.41 45.8226 141.923C45.882 142.139 45.9415 142.354 45.9976 142.566C46.0692 142.848 46.1504 143.118 46.2308 143.386C46.2927 143.592 46.3537 143.795 46.409 143.998C46.5501 144.514 46.7166 145.017 46.8847 145.523C46.9805 145.812 47.0763 146.102 47.1685 146.395C47.3265 146.862 47.4849 147.328 47.6429 147.764C47.8959 148.48 48.1493 149.165 48.434 149.881C48.5604 150.176 48.6792 150.472 48.7976 150.768C48.9165 151.063 49.0353 151.359 49.1618 151.654C49.2568 151.888 49.3595 152.121 49.4625 152.355C49.5651 152.588 49.6678 152.821 49.7628 153.055C50.1427 153.927 50.5223 154.766 50.9337 155.607C51.0287 155.731 51.0917 155.856 51.1552 156.011C58.496 170.889 70.456 183.151 85.2012 191.025C86.2767 191.616 87.3841 192.177 88.4919 192.705C88.8079 192.872 89.1244 193.009 89.4408 193.148C89.5989 193.217 89.7574 193.286 89.9154 193.359C90.6433 193.701 91.3393 194.012 92.0672 194.324C92.6362 194.567 93.2242 194.791 93.8018 195.012C93.963 195.073 94.1231 195.134 94.282 195.195C94.7569 195.382 95.2313 195.568 95.7374 195.756C96.7502 196.129 97.7627 196.471 98.775 196.782C98.9965 196.876 99.2496 196.97 99.5029 197.031C100.705 197.404 101.908 197.748 103.142 198.058C103.173 198.074 103.205 198.081 103.237 198.09C103.268 198.097 103.3 198.106 103.332 198.121C104.376 198.37 105.452 198.618 106.495 198.836C106.706 198.862 106.894 198.909 107.097 198.961C107.138 198.971 107.18 198.982 107.223 198.992C107.54 199.054 107.864 199.109 108.188 199.163C108.513 199.217 108.837 199.272 109.154 199.335C109.486 199.381 109.818 199.443 110.15 199.506C110.482 199.568 110.815 199.63 111.147 199.677C111.716 199.771 112.286 199.832 112.854 199.895H112.855C113.12 199.927 113.379 199.963 113.639 200C114.125 200.067 114.606 200.134 115.102 200.174C115.445 200.206 115.797 200.231 116.153 200.254C116.485 200.278 116.822 200.3 117.158 200.33C117.76 200.393 118.393 200.455 119.025 200.486C119.597 200.527 120.183 200.541 120.774 200.555C121.065 200.562 121.359 200.569 121.651 200.579C121.857 200.579 122.071 200.587 122.285 200.594C122.498 200.603 122.712 200.61 122.917 200.61C124.057 200.61 125.195 200.579 126.335 200.549H126.714C138.327 200.05 149.685 197.093 159.969 191.927C159.993 191.916 160.013 191.908 160.03 191.902C160.057 191.891 160.077 191.884 160.096 191.864C161.076 191.398 162.026 190.869 162.975 190.34L163.924 189.78C164.589 189.407 165.253 189.033 165.887 188.628C166.187 188.441 166.487 188.247 166.788 188.052C167.089 187.858 167.389 187.663 167.69 187.477C167.864 187.368 168.038 187.251 168.212 187.135C168.385 187.017 168.56 186.901 168.734 186.792C169.588 186.201 170.443 185.609 171.297 184.987C171.329 184.956 171.368 184.933 171.408 184.909C171.447 184.886 171.487 184.862 171.518 184.831C180.726 178.047 188.415 169.332 193.952 159.342C193.999 159.248 194.054 159.147 194.11 159.047C194.166 158.944 194.221 158.844 194.268 158.75C200.311 147.67 203.729 135.034 203.729 121.621H246.92ZM203.852 77.7033H159.349V121.5H203.852V77.7033Z" fill="url(#paint0_linear_460_4127)"/>
<path d="M313.234 176.236V199.862H309.91L294.454 181.312H294.177V199.862H290.742V176.236H294.066L309.578 194.832H309.855V176.236H313.234Z" fill="black"/>
<path d="M346.238 199.862V176.236H363.357V178.774H349.673V186.757H362.47V189.295H349.673V197.324H363.578V199.862H346.238Z" fill="black"/>
<path d="M394.127 178.774V176.236H415.4V178.774H406.481V199.862H403.046V178.774H394.127Z" fill="black"/>
<path d="M451.984 199.862L444.228 176.236H447.719L453.646 195.478H453.923L459.962 176.236H463.84L469.878 195.478H470.155L476.083 176.236H479.573L471.817 199.862H468.272L462.012 181.035H461.79L455.53 199.862H451.984Z" fill="black"/>
<path d="M532.583 188.049C532.583 190.541 532.043 192.694 530.963 194.509C529.882 196.324 528.4 197.724 526.517 198.708C524.633 199.693 522.482 200.185 520.063 200.185C517.644 200.185 515.492 199.693 513.609 198.708C511.725 197.724 510.243 196.324 509.163 194.509C508.083 192.694 507.543 190.541 507.543 188.049C507.543 185.557 508.083 183.404 509.163 181.589C510.243 179.774 511.725 178.374 513.609 177.39C515.492 176.405 517.644 175.913 520.063 175.913C522.482 175.913 524.633 176.405 526.517 177.39C528.4 178.374 529.882 179.774 530.963 181.589C532.043 183.404 532.583 185.557 532.583 188.049ZM529.259 188.049C529.259 186.003 528.848 184.277 528.027 182.869C527.214 181.462 526.111 180.397 524.716 179.674C523.331 178.951 521.78 178.589 520.063 178.589C518.345 178.589 516.79 178.951 515.395 179.674C514.01 180.397 512.907 181.462 512.085 182.869C511.273 184.277 510.867 186.003 510.867 188.049C510.867 190.095 511.273 191.821 512.085 193.229C512.907 194.636 514.01 195.701 515.395 196.424C516.79 197.147 518.345 197.508 520.063 197.508C521.78 197.508 523.331 197.147 524.716 196.424C526.111 195.701 527.214 194.636 528.027 193.229C528.848 191.821 529.259 190.095 529.259 188.049Z" fill="black"/>
<path d="M564.489 199.862V176.236H574.073C576.289 176.236 578.108 176.551 579.53 177.182C580.952 177.805 582.005 178.662 582.688 179.755C583.371 180.847 583.713 182.089 583.713 183.481C583.713 184.873 583.371 186.107 582.688 187.184C582.005 188.26 580.957 189.106 579.544 189.722C578.131 190.329 576.326 190.633 574.129 190.633H566.373V188.049H574.018C575.532 188.049 576.751 187.864 577.674 187.495C578.607 187.126 579.281 186.603 579.696 185.926C580.121 185.242 580.334 184.427 580.334 183.481C580.334 182.535 580.121 181.708 579.696 181C579.272 180.293 578.593 179.747 577.661 179.362C576.728 178.97 575.495 178.774 573.963 178.774H567.924V199.862H564.489ZM577.841 189.249L584.821 199.862H580.832L573.963 189.249H577.841Z" fill="black"/>
<path d="M615.567 199.862V176.236H619.002V187.957H619.334L632.076 176.236H636.564L624.653 186.895L636.564 199.862H632.409L622.547 188.88L619.002 192.202V199.862H615.567Z" fill="black"/>
<path fill-rule="evenodd" clip-rule="evenodd" d="M336.4 124.853C339.821 123.541 342.915 121.899 345.637 119.898V126.391H363.952V74.1364H316.616V92.3317H345.133C344.613 94.7304 343.704 96.8012 342.456 98.6009L342.436 98.6295L342.416 98.6585C340.283 101.826 337.496 104.236 333.969 105.934L333.952 105.942L333.936 105.95C330.398 107.686 326.639 108.555 322.595 108.555C316.968 108.555 312.398 107.336 308.683 105.106C304.922 102.72 302.089 99.5862 300.11 95.6347C298.084 91.5104 297.035 86.8862 297.035 81.675C297.035 76.3782 298.086 71.7742 300.087 67.7599C302.138 63.8039 305.043 60.7049 308.879 58.3902L308.906 58.374L308.933 58.3574C312.647 56.0521 317.211 54.7949 322.835 54.7949C328.231 54.7949 332.465 55.8925 335.771 57.8258L335.788 57.836L335.806 57.8462C339.361 59.8871 342.065 62.6031 344.01 66.0391L345.452 68.5863H365.947L362.798 61.5222C359.438 53.9843 354.16 47.8628 347.092 43.2031C339.922 38.3404 331.523 36 322.115 36C313.398 36 305.54 38.0346 298.726 42.2683C292.111 46.348 286.972 51.9045 283.362 58.8534C279.762 65.7831 278 73.4227 278 81.675C278 89.9069 279.714 97.5302 283.219 104.451C286.738 111.399 291.785 116.997 298.306 121.164L298.34 121.185L298.374 121.207C305.134 125.374 313.038 127.35 321.876 127.35C327.161 127.35 332.033 126.559 336.4 124.853ZM491.471 36C484.885 36 478.739 37.1439 473.1 39.5087C467.53 41.8446 462.673 45.1493 458.584 49.421L458.564 49.4413L458.545 49.4619C454.586 53.6908 451.53 58.551 449.383 64.0068C447.216 69.5162 446.157 75.422 446.157 81.675C446.157 87.8581 447.219 93.7523 449.373 99.3174L449.378 99.3303L449.383 99.3432C451.53 104.799 454.586 109.659 458.545 113.888L458.564 113.909L458.584 113.929C462.673 118.201 467.53 121.505 473.1 123.841C478.739 126.206 484.885 127.35 491.471 127.35C498.057 127.35 504.203 126.206 509.842 123.841C515.413 121.505 520.239 118.196 524.258 113.909C528.301 109.681 531.407 104.814 533.559 99.3432L533.564 99.3303L533.569 99.3174C535.723 93.7523 536.786 87.8581 536.786 81.675C536.786 75.422 535.727 69.5162 533.559 64.0068C531.407 58.5355 528.301 53.6687 524.258 49.4406C520.239 45.1538 515.413 41.8448 509.842 39.5087C504.203 37.1439 498.057 36 491.471 36ZM443.592 36.9594H369.152V55.5144H396.854V126.391H415.889V55.5144H443.592V36.9594ZM568.726 36.9594H550.731V126.391H569.765V69.6949L611.247 126.391H629.248V36.9594H610.213V93.4596L568.726 36.9594ZM477.417 58.3775C481.229 56.0513 485.85 54.7949 491.471 54.7949C497.188 54.7949 501.789 56.058 505.493 58.3574L505.536 58.384L505.579 58.4097C509.501 60.736 512.434 63.8419 514.474 67.7894L514.489 67.8185L514.504 67.8474C516.636 71.8447 517.751 76.4162 517.751 81.675C517.751 86.8408 516.642 91.4282 514.488 95.5329L514.481 95.5467L514.474 95.5606C512.43 99.5176 509.482 102.676 505.536 105.086C501.824 107.323 497.207 108.555 491.471 108.555C485.838 108.555 481.206 107.333 477.39 105.076C473.453 102.668 470.464 99.5085 468.341 95.5461C466.265 91.4415 465.191 86.848 465.191 81.675C465.191 76.4034 466.272 71.8204 468.334 67.8185C470.455 63.8531 473.438 60.7381 477.363 58.4097L477.39 58.3937L477.417 58.3775Z" fill="url(#paint1_linear_460_4127)"/>
<defs>
<linearGradient id="paint0_linear_460_4127" x1="284.243" y1="286.555" x2="257.969" y2="-44.2591" gradientUnits="userSpaceOnUse">
<stop stop-color="#E7B84A"/>
<stop offset="0.449606" stop-color="#FFE8CE"/>
<stop offset="1" stop-color="#E7B84A"/>
</linearGradient>
<linearGradient id="paint1_linear_460_4127" x1="682.341" y1="143.723" x2="679.715" y2="18.6325" gradientUnits="userSpaceOnUse">
<stop stop-color="#E7B84A"/>
<stop offset="0.449606" stop-color="#FFE8CE"/>
<stop offset="1" stop-color="#E7B84A"/>
</linearGradient>
</defs>
</svg>
