<svg width="415" height="149" viewBox="0 0 415 149" fill="none" xmlns="http://www.w3.org/2000/svg">
<path fill-rule="evenodd" clip-rule="evenodd" d="M111.75 0H37.25C16.6774 0 0 16.6774 0 37.25V111.75C0 132.323 16.6774 149 37.25 149H111.75C132.323 149 149 132.323 149 111.75V37.25C149 16.6774 132.323 0 111.75 0ZM125.346 71.0887C124.67 72.3315 123.842 73.4714 122.881 74.478C123.842 75.4853 124.672 76.6249 125.346 77.8674C127.372 81.6067 127.816 85.9355 126.591 90.0526C125.517 93.6659 124.052 97.1919 122.237 100.537C119.515 105.537 114.344 108.677 108.686 108.788C108.641 110.816 108.203 112.841 107.386 114.729C105.986 117.968 103.525 120.673 100.453 122.346C97.1107 124.166 93.5891 125.632 89.9825 126.708C88.4726 127.157 86.9231 127.383 85.3743 127.383C81.2801 127.383 77.3758 125.777 74.473 123.023C74.0111 123.471 73.5195 123.893 72.9985 124.284C70.2936 126.31 66.9468 127.427 63.5731 127.427C62.0923 127.427 60.6152 127.217 59.1856 126.803C55.3108 125.671 51.5562 124.101 48.0174 122.137C43.7706 119.774 40.8331 115.493 40.1581 110.684C40.0709 110.061 40.0233 109.441 40.0114 108.821C39.4121 108.807 38.8151 108.757 38.2313 108.672C33.3623 107.973 29.0411 104.976 26.6775 100.654C24.7835 97.1899 23.2657 93.5194 22.1642 89.7404C20.7909 85.0086 21.7331 79.8393 24.6776 75.9077C25.0565 75.4029 25.4611 74.9269 25.8928 74.4767C25.4636 74.0288 25.0603 73.5535 24.6841 73.0533C21.7344 69.1178 20.7929 63.9481 22.1668 59.2213C23.2735 55.4248 24.7874 51.7542 26.6717 48.308C29.0411 43.9845 33.3597 40.9835 38.2286 40.2825C38.8798 40.1912 39.5257 40.1396 40.1621 40.1313C40.2136 38.1148 40.6517 36.1029 41.4635 34.2253C42.864 30.9884 45.3237 28.2838 48.3954 26.6105C51.7376 24.7904 55.2589 23.3238 58.8658 22.2481C60.3756 21.7997 61.9252 21.5723 63.4737 21.5723C67.5933 21.5723 71.5157 23.1978 74.4241 25.9792C77.3332 23.1978 81.2546 21.5723 85.3743 21.5723C86.9231 21.5723 88.4726 21.7997 89.9799 22.2481C93.5891 23.3238 97.1107 24.7904 100.45 26.6079C103.525 28.2838 105.986 30.9884 107.386 34.2266C108.203 36.1151 108.641 38.1393 108.686 40.168C114.344 40.2805 119.515 43.4198 122.235 48.4165C124.052 51.7642 125.517 55.2905 126.591 58.9021C127.816 63.0215 127.372 67.349 125.346 71.0887ZM74.4073 111.692C94.9226 111.692 111.554 95.0405 111.554 74.4999C111.554 53.9593 94.9226 37.3075 74.4073 37.3075C53.892 37.3075 37.2608 53.9593 37.2608 74.4999C37.2608 95.0405 53.892 111.692 74.4073 111.692ZM97.0469 85.2882C98.6779 81.9666 99.5924 78.2356 99.5924 74.2934H90.8629C90.8629 77.0515 90.172 79.6499 88.9506 81.9283C88.9431 81.9433 88.9347 81.9591 88.9261 81.9753L88.9187 81.9892C88.9073 82.0098 88.8961 82.0306 88.8867 82.0499C87.7675 84.1041 86.2134 85.8961 84.3524 87.2913C84.3464 87.2973 84.3388 87.302 84.3313 87.3066L84.3301 87.3073C84.322 87.3121 84.3141 87.3169 84.3078 87.3233C84.1351 87.4513 83.9624 87.5729 83.7896 87.6946C83.7715 87.7061 83.7533 87.718 83.7352 87.7302C83.7181 87.7416 83.7011 87.7532 83.6842 87.7649C83.6629 87.7793 83.6417 87.7938 83.6205 87.808C83.6065 87.8173 83.5926 87.8264 83.5786 87.8353C83.5276 87.8674 83.4768 87.9008 83.4258 87.9343L83.3963 87.9536C83.3355 87.9937 83.2748 88.0336 83.2142 88.072C83.0861 88.1552 82.952 88.2322 82.8176 88.3089L82.6256 88.4241C82.4339 88.5329 82.2419 88.6416 82.0438 88.7375C82.0398 88.7415 82.0359 88.743 82.0304 88.7452C82.0269 88.7465 82.023 88.7481 82.0182 88.7505C79.9396 89.8127 77.6439 90.4207 75.2967 90.5233H75.2201L75.2188 90.5233C74.9887 90.5296 74.7591 90.536 74.5293 90.536C74.4877 90.536 74.4446 90.5344 74.4015 90.5327C74.3584 90.5312 74.315 90.5296 74.2734 90.5296C74.2143 90.5274 74.155 90.5261 74.0961 90.5246C73.9766 90.5217 73.8582 90.5189 73.7426 90.5103C73.6148 90.504 73.487 90.4913 73.3652 90.4783C73.2974 90.4722 73.2293 90.4676 73.1621 90.4628C73.0901 90.458 73.019 90.4529 72.9498 90.4463C72.851 90.4381 72.755 90.4246 72.6583 90.411L72.6541 90.4104C72.6015 90.4029 72.549 90.3955 72.4956 90.3889H72.4954C72.3805 90.376 72.2653 90.3633 72.1504 90.344C72.0832 90.3343 72.016 90.3216 71.9488 90.3089C71.8816 90.296 71.8146 90.2833 71.7474 90.2736C71.7193 90.2679 71.6907 90.2626 71.662 90.2574C71.6256 90.2508 71.589 90.2446 71.5523 90.2383C71.5267 90.234 71.501 90.2296 71.4755 90.2251C71.4357 90.2182 71.3962 90.211 71.3573 90.2033L71.3318 90.1967C71.2908 90.1862 71.2527 90.1765 71.2102 90.1711C70.9992 90.1264 70.7817 90.0753 70.5707 90.024C70.5643 90.021 70.5579 90.0192 70.5515 90.0177C70.5451 90.0159 70.5387 90.0144 70.5323 90.0111C70.2829 89.9473 70.0399 89.8767 69.7968 89.8C69.7457 89.7873 69.6945 89.768 69.6497 89.7487C69.4451 89.6848 69.2405 89.6144 69.0358 89.5377C68.9351 89.4997 68.8405 89.462 68.746 89.4242L68.7416 89.4224C68.7095 89.4099 68.6771 89.3972 68.6445 89.3847C68.5278 89.3394 68.409 89.2933 68.294 89.2434C68.1468 89.1792 68.0062 89.1152 67.859 89.0448C67.8271 89.0299 67.7951 89.0157 67.7631 89.0014C67.6992 88.9729 67.6352 88.9446 67.5713 88.9105C67.3474 88.8018 67.1236 88.6865 66.9062 88.5648C63.926 86.9457 61.5086 84.4243 60.0249 81.365C60.0121 81.333 59.9993 81.3074 59.9801 81.282C59.897 81.109 59.8203 80.9363 59.7435 80.7571C59.7243 80.7091 59.7035 80.6611 59.6828 80.6131C59.6702 80.584 59.6576 80.5548 59.6453 80.5257C59.6374 80.5068 59.6296 80.488 59.622 80.4691C59.5965 80.4084 59.5724 80.3475 59.5484 80.2867C59.5245 80.226 59.5005 80.1651 59.4749 80.1044C59.4174 79.9571 59.3662 79.8164 59.315 79.6692C59.2831 79.5795 59.2511 79.4835 59.2191 79.3875C59.2045 79.3401 59.1894 79.2931 59.1741 79.2462L59.1618 79.2083C59.1278 79.1042 59.0941 79.0007 59.0656 78.8946C59.0544 78.853 59.0421 78.8111 59.0296 78.7688C59.0134 78.7138 58.9969 78.6582 58.9825 78.6003C58.9724 78.5615 58.9618 78.5222 58.9511 78.4826L58.9471 78.4679L58.9458 78.4631C58.9178 78.3593 58.8895 78.2542 58.8674 78.1523L58.8519 78.0875C58.8251 77.9761 58.7992 77.8681 58.7779 77.7557C58.7523 77.6467 58.7266 77.5317 58.7075 77.4228C58.6691 77.2371 58.6371 77.0452 58.6051 76.8532C58.602 76.8277 58.5972 76.8003 58.5923 76.7732C58.5876 76.746 58.5828 76.7188 58.5796 76.6932C58.4645 75.906 58.4005 75.0997 58.4005 74.2804C58.4005 72.3733 58.7331 70.543 59.3406 68.8471C59.3451 68.8337 59.3496 68.8206 59.354 68.8077C59.3592 68.7929 59.3643 68.7784 59.3694 68.7639C59.3761 68.7448 59.3828 68.7257 59.3896 68.7061C59.3924 68.6977 59.3953 68.6893 59.3982 68.6807C59.4365 68.574 59.4806 68.4674 59.5246 68.3607C59.5467 68.3074 59.5687 68.2541 59.59 68.2007C59.6092 68.1559 59.6268 68.1111 59.6444 68.0663C59.662 68.0215 59.6795 67.9767 59.6987 67.9319H59.6988C59.7691 67.7719 59.8395 67.6119 59.9162 67.452C59.9354 67.4135 59.9529 67.3735 59.9705 67.3335L59.9718 67.3305C59.989 67.2915 60.0062 67.2525 60.0249 67.2152L60.025 67.215C60.1336 66.9974 60.2424 66.7799 60.3575 66.5624C60.3606 66.5591 60.3623 66.5544 60.3638 66.5496C60.3648 66.5466 60.3658 66.5437 60.3671 66.5412C60.368 66.5395 60.369 66.5381 60.3702 66.5368C61.9882 63.5609 64.508 61.1482 67.5585 59.6634C67.5733 59.6575 67.5881 59.6501 67.6029 59.6428L67.6065 59.641C67.6225 59.633 67.6385 59.625 67.6544 59.6186C67.8207 59.5354 67.9934 59.4586 68.166 59.3882L68.2373 59.3567L68.2393 59.3558C68.3151 59.3222 68.3891 59.2893 68.4666 59.2602C68.5564 59.2203 68.6501 59.1842 68.7416 59.149L68.7426 59.1487L68.8184 59.1194C68.9654 59.0618 69.1189 59.0042 69.266 58.953C69.3108 58.937 69.3539 58.9226 69.3972 58.9082C69.4403 58.8938 69.4835 58.8794 69.5283 58.8635C69.6932 58.8063 69.8644 58.7555 70.0357 58.7047L70.0398 58.7035L70.0399 58.7034C70.0846 58.6907 70.131 58.6778 70.1774 58.6651L70.1935 58.6606C70.2345 58.6493 70.2753 58.638 70.3148 58.6266C70.4429 58.5893 70.5753 58.5563 70.7048 58.5242L70.7817 58.5051C70.821 58.4952 70.8597 58.486 70.8982 58.477C70.9223 58.4713 70.9463 58.4658 70.9703 58.4602C71.0327 58.4458 71.0951 58.4314 71.159 58.4154C71.2166 58.4027 71.2757 58.3898 71.3349 58.3771L71.3613 58.3713C71.4116 58.3604 71.4618 58.3495 71.5108 58.3386C71.6899 58.3003 71.8753 58.2683 72.0543 58.2427C72.0852 58.2358 72.1178 58.2307 72.1513 58.2256C72.1804 58.2212 72.2102 58.2166 72.2399 58.2106C73.0264 58.0955 73.8258 58.0314 74.6444 58.0314C77.0938 58.025 79.5239 58.5754 81.7879 59.689L85.625 51.8429C81.0268 49.5837 75.9619 48.8158 70.9992 49.5581C70.8904 49.5741 70.7801 49.5917 70.6698 49.6093C70.5595 49.6269 70.4491 49.6445 70.3404 49.6605C70.2817 49.6723 70.2229 49.6827 70.1648 49.693L70.1628 49.6934C70.0951 49.7053 70.0281 49.7172 69.9631 49.7309C69.6242 49.7949 69.2852 49.8653 68.9527 49.9421C68.9452 49.9421 68.9377 49.9443 68.9314 49.9461C68.9271 49.9474 68.9234 49.9485 68.9207 49.9485C67.7184 50.2301 66.548 50.6013 65.4225 51.0493C65.4033 51.0557 65.3857 51.0637 65.3681 51.0717C65.3588 51.0759 65.3495 51.0802 65.34 51.0841C65.3315 51.0877 65.3228 51.0911 65.3138 51.0941C65.0004 51.2221 64.6934 51.3501 64.3928 51.4909C64.3195 51.5228 64.2463 51.5578 64.173 51.5929L64.1723 51.5933L64.17 51.5943C64.0972 51.6292 64.0244 51.664 63.9516 51.6957C63.8556 51.7405 63.7597 51.7853 63.6638 51.8364C59.2063 54.0124 55.529 57.4427 53.0349 61.7753C53.0295 61.7843 53.0242 61.7928 53.0189 61.8009C53.0055 61.8221 52.9929 61.8419 52.9837 61.8649C52.9613 61.9039 52.9392 61.9428 52.9173 61.9817C52.8924 62.026 52.8677 62.0703 52.843 62.1145C52.7967 62.1977 52.7503 62.2809 52.7024 62.3641C52.568 62.6073 52.4401 62.8505 52.3186 63.1001C52.2867 63.1577 52.2547 63.2152 52.2291 63.2793C52.2233 63.2909 52.2181 63.302 52.2131 63.3128C52.2098 63.3198 52.2067 63.3267 52.2035 63.3337C52.1996 63.3423 52.1957 63.3509 52.1916 63.3598C52.1873 63.3689 52.1828 63.3783 52.1779 63.3881C52.0308 63.6889 51.8966 63.9896 51.7622 64.2968C51.7495 64.3288 51.7351 64.3609 51.7207 64.3929C51.7063 64.4248 51.6919 64.4568 51.6791 64.4889C51.5448 64.8025 51.4169 65.116 51.3018 65.436C51.289 65.4712 51.2746 65.5064 51.2602 65.5416L51.259 65.5445C51.245 65.5788 51.2311 65.613 51.2187 65.6472C51.1099 65.9352 51.0076 66.2296 50.9117 66.5303L50.9113 66.5315C50.873 66.6464 50.8348 66.7611 50.803 66.876C50.7262 67.1192 50.6559 67.3623 50.5919 67.6056C50.5088 67.8935 50.4384 68.1879 50.3681 68.4823L50.3681 68.4823C50.3617 68.5143 50.3537 68.5479 50.3457 68.5815C50.3377 68.6151 50.3297 68.6487 50.3233 68.6807C49.6198 71.7141 49.4983 74.8373 49.9588 77.9284L49.9588 77.9286L49.9594 77.9324C49.9911 78.1422 50.023 78.3522 50.0611 78.562C50.0739 78.6292 50.0851 78.6963 50.0963 78.7636C50.1075 78.8309 50.1187 78.8979 50.1315 78.9652C50.1954 79.3043 50.2658 79.6372 50.3425 79.9701C50.3457 79.9764 50.3473 79.9843 50.3489 79.9924L50.349 79.9929C50.3506 80.0007 50.3522 80.0086 50.3553 80.0148C50.6367 81.2116 51.0076 82.3826 51.4553 83.5027C51.4617 83.5218 51.4697 83.541 51.4777 83.5601C51.4856 83.5794 51.4936 83.5987 51.5 83.6178C51.6216 83.925 51.7495 84.2257 51.8902 84.5266L51.8904 84.527C51.9606 84.6805 52.0309 84.8339 52.1012 84.9809C52.1138 85.0063 52.1264 85.0321 52.1391 85.058C52.1488 85.0781 52.1586 85.0983 52.1683 85.1186C52.1816 85.1459 52.1948 85.1734 52.2081 85.2006C52.2172 85.2193 52.2264 85.2379 52.2355 85.2562C54.4099 89.7231 57.8377 93.403 62.1737 95.899C62.1832 95.9047 62.1922 95.9098 62.2008 95.9148C62.2209 95.9264 62.2389 95.9367 62.2568 95.9501C62.4231 96.0463 62.5894 96.1423 62.7557 96.2317C62.9987 96.3661 63.2481 96.4943 63.4911 96.6157C63.5486 96.6477 63.6062 96.6797 63.6702 96.7053C63.7213 96.731 63.7725 96.7566 63.8301 96.7822C63.8429 96.7886 63.8573 96.795 63.8716 96.8013C63.8827 96.8062 63.8938 96.8112 63.9042 96.8162C63.9072 96.8177 63.9103 96.8191 63.9132 96.8206H63.9134C64.1436 96.9295 64.3737 97.0382 64.6039 97.1342C64.6647 97.1599 64.7238 97.187 64.783 97.2142C64.8421 97.2414 64.9012 97.2686 64.962 97.2942C64.9797 97.3016 64.9977 97.309 65.016 97.3163C65.0372 97.325 65.0588 97.3336 65.0803 97.3422C65.1203 97.3582 65.1603 97.3742 65.1987 97.3902C65.3284 97.4459 65.4581 97.4954 65.5878 97.5449L65.6016 97.5502C65.6337 97.5635 65.6658 97.5758 65.6984 97.5878C65.7134 97.5934 65.7286 97.5989 65.7439 97.6045L65.7657 97.6126C65.7894 97.6214 65.8135 97.6303 65.8382 97.6398C65.9054 97.6652 65.9741 97.6909 66.0428 97.7165L66.0544 97.7208C66.1193 97.745 66.1841 97.7692 66.2475 97.7932C66.2805 97.8043 66.3134 97.8166 66.3463 97.8288L66.3626 97.8349C66.401 97.8493 66.4394 97.8638 66.4777 97.8765C66.6183 97.9278 66.7588 97.9725 66.8994 98.0172L66.8998 98.0174C66.9102 98.0208 66.9205 98.0243 66.9307 98.0277L66.9456 98.0328L66.9509 98.0346C67.0086 98.0541 67.0642 98.0729 67.1236 98.0878C67.1972 98.1101 67.2723 98.1325 67.3474 98.1548C67.4226 98.1774 67.4977 98.1998 67.5713 98.2221C67.6352 98.2414 67.6992 98.2605 67.7695 98.2798C67.9288 98.3252 68.0931 98.3707 68.2579 98.4164L68.3185 98.4332L68.3195 98.4334C68.3321 98.4358 68.3447 98.4394 68.3577 98.4431L68.362 98.4444C68.3807 98.4496 68.4002 98.4553 68.4219 98.4588C68.6329 98.5165 68.8503 98.5677 69.0678 98.6188C69.1381 98.6381 69.2085 98.6508 69.2852 98.6637C69.4259 98.6957 69.573 98.7277 69.7137 98.7534L69.7547 98.7615C69.8355 98.7779 69.9129 98.7935 69.9951 98.8044C70.0619 98.8187 70.1288 98.8307 70.1966 98.843C70.2522 98.8531 70.3085 98.8634 70.366 98.875C70.4172 98.8846 70.4683 98.8925 70.5196 98.9004L70.5369 98.9032C70.5823 98.9103 70.6276 98.9175 70.673 98.9261C70.6994 98.9305 70.7261 98.9349 70.753 98.9393C70.7849 98.9445 70.817 98.9498 70.8491 98.955C70.868 98.9581 70.8868 98.9611 70.9056 98.9642C70.9457 98.9707 70.9856 98.9771 71.0247 98.9837C71.0704 98.9894 71.1162 98.9965 71.1619 99.0035L71.1782 99.0061C71.2293 99.0142 71.2805 99.0221 71.3317 99.0284C71.3597 99.0314 71.3873 99.0347 71.4147 99.0382C71.4469 99.0423 71.4788 99.0466 71.5108 99.051C71.5699 99.0589 71.629 99.067 71.6899 99.0733L71.7205 99.0771C71.8116 99.0887 71.8985 99.0996 71.9904 99.1053C72.1182 99.118 72.2463 99.131 72.3805 99.1437C72.428 99.1472 72.4753 99.1522 72.5217 99.1573C72.563 99.1619 72.6035 99.1663 72.6427 99.1693C72.7961 99.182 72.9561 99.195 73.1096 99.2013C73.1383 99.2046 73.1687 99.2062 73.1991 99.2077L73.21 99.2083C73.2368 99.2098 73.2634 99.2113 73.2886 99.214C73.7492 99.2397 74.2095 99.2526 74.6701 99.2526C79.441 99.2526 83.9048 97.9085 87.6971 95.5727C87.7036 95.5661 87.71 95.5661 87.71 95.5598C87.7844 95.5134 87.8578 95.4672 87.9312 95.421L87.9849 95.3871C88.076 95.3294 88.1672 95.2718 88.26 95.2142C88.3416 95.1643 88.4202 95.1111 88.5 95.0569L88.5008 95.0564C88.5332 95.0344 88.5658 95.0123 88.5989 94.9902C88.6085 94.9838 88.6197 94.9758 88.6308 94.9678C88.642 94.9598 88.6532 94.9518 88.6628 94.9455C92.0203 92.6798 94.8661 89.5631 96.8486 85.7298C96.8565 85.7142 96.8647 85.6982 96.8731 85.682C96.8819 85.6649 96.8909 85.6477 96.8998 85.6305C96.9176 85.597 96.9351 85.5635 96.951 85.5312C96.951 85.4764 96.9885 85.403 97.0274 85.3268L97.0469 85.2882ZM81.8928 65.2624H90.8876V74.2684H81.8928V65.2624Z" fill="url(#paint0_linear_537_432)"/>
<path fill-rule="evenodd" clip-rule="evenodd" d="M223.238 76.114C221.417 77.4526 219.348 78.5509 217.06 79.4281C214.14 80.569 210.881 81.0984 207.346 81.0984C201.435 81.0984 196.148 79.7765 191.627 76.9894L191.604 76.9753L191.581 76.9607C187.22 74.1741 183.844 70.4299 181.49 65.7824C179.146 61.1537 178 56.055 178 50.5492C178 45.0297 179.179 39.92 181.586 35.2853C184.001 30.6375 187.438 26.9211 191.862 24.1925C196.42 21.3608 201.675 20 207.506 20C213.798 20 219.416 21.5654 224.212 24.8177C228.938 27.9343 232.469 32.0286 234.716 37.0702L236.822 41.795H223.114L222.15 40.0913C220.849 37.7932 219.041 35.9766 216.663 34.6116L216.651 34.6048L216.639 34.5979C214.429 33.3049 211.596 32.5707 207.987 32.5707C204.226 32.5707 201.173 33.4116 198.689 34.9535L198.671 34.9646L198.653 34.9755C196.088 36.5236 194.144 38.5963 192.773 41.2422C191.435 43.9271 190.731 47.0065 190.731 50.5492C190.731 54.0346 191.433 57.1275 192.788 59.886C194.111 62.5289 196.007 64.6251 198.522 66.2206C201.006 67.712 204.063 68.5276 207.827 68.5276C210.531 68.5276 213.046 67.9461 215.412 66.7853L215.423 66.7799L215.434 66.7745C217.793 65.6388 219.657 64.0268 221.084 61.9084L221.097 61.889L221.11 61.8698C221.946 60.6662 222.554 59.2811 222.901 57.6768H203.828V45.5071H235.488V80.4567H223.238V76.114ZM308.49 22.3467C312.262 20.7651 316.373 20 320.778 20C325.183 20 329.293 20.7651 333.065 22.3467C336.791 23.9092 340.019 26.1224 342.707 28.9896C345.411 31.8175 347.488 35.0726 348.928 38.732C350.378 42.4169 351.086 46.3669 351.086 50.5492C351.086 54.6847 350.375 58.627 348.934 62.3491L348.931 62.3577L348.928 62.3664C347.488 66.0257 345.411 69.2807 342.707 72.1087C340.019 74.9759 336.791 77.1891 333.065 78.7516C329.293 80.3333 325.183 81.0984 320.778 81.0984C316.373 81.0984 312.262 80.3333 308.49 78.7516C304.765 77.1893 301.517 74.9789 298.781 72.1219L298.768 72.1083L298.755 72.0945C296.107 69.2661 294.063 66.0154 292.628 62.3664L292.624 62.3577L292.621 62.3491C291.18 58.627 290.47 54.6847 290.47 50.5492C290.47 46.3669 291.178 42.4169 292.628 38.732C294.063 35.083 296.107 31.8323 298.755 29.0038L298.768 28.9901L298.781 28.9765C301.517 26.1194 304.765 23.9091 308.49 22.3467ZM238.966 20.6417H288.754V33.052H270.225V80.4567H257.494V33.052H238.966V20.6417ZM360.413 20.6417H372.449L400.197 58.4312V20.6417H412.928V80.4567H400.888L373.144 42.5364V80.4567H360.413V20.6417ZM320.778 32.5707C317.018 32.5707 313.927 33.4111 311.377 34.9669L311.36 34.9778L311.342 34.9884C308.716 36.5458 306.721 38.6292 305.302 41.2814C303.924 43.9581 303.201 47.0233 303.201 50.5492C303.201 54.0091 303.918 57.0814 305.308 59.8267C306.727 62.4769 308.726 64.5901 311.359 66.2007C313.912 67.71 317.01 68.5276 320.778 68.5276C324.614 68.5276 327.702 67.7035 330.185 66.2076C332.824 64.5955 334.795 62.483 336.163 59.8364L336.168 59.8271L336.172 59.8179C337.613 57.0725 338.355 54.0043 338.355 50.5492C338.355 47.0319 337.609 43.9743 336.183 41.3008L336.173 41.2814L336.163 41.2619C334.799 38.6217 332.837 36.5444 330.214 34.9884L330.185 34.9712L330.156 34.9535C327.679 33.4156 324.601 32.5707 320.778 32.5707Z" fill="url(#paint1_linear_537_432)"/>
<path d="M195.349 135.839C201.587 135.839 205.857 132.323 205.857 127.174C205.857 122.987 203.303 120.35 198.196 118.801L192.628 117.127C189.572 116.248 187.94 114.406 187.94 112.019C187.94 109.089 190.41 107.122 194.177 107.122C197.987 107.122 200.833 109.131 202.131 112.815L205.606 111.182C204.182 107.038 199.871 103.647 194.135 103.647C188.149 103.647 183.963 107.205 183.963 112.271C183.963 116.122 186.475 119.262 191.456 120.727L197.275 122.485C200.373 123.406 201.88 124.829 201.88 127.467C201.88 130.355 199.284 132.365 195.349 132.365C191.205 132.365 187.982 130.104 186.516 125.834L183 127.383C184.507 132.113 189.238 135.839 195.349 135.839Z" fill="white"/>
<path d="M249.679 135.337H253.656V122.192H269.48V135.337H273.457V104.149H269.48V118.717H253.656V104.149H249.679V135.337Z" fill="white"/>
<path d="M333.267 135.839C342.1 135.839 349.091 129.057 349.091 119.722C349.091 110.429 342.1 103.647 333.267 103.647C324.476 103.647 317.485 110.387 317.485 119.722C317.485 129.099 324.476 135.839 333.267 135.839ZM333.267 132.155C326.401 132.155 321.462 126.671 321.462 119.722C321.462 112.857 326.36 107.331 333.267 107.331C340.216 107.331 345.114 112.857 345.114 119.722C345.114 126.671 340.174 132.155 333.267 132.155Z" fill="white"/>
<path d="M393.148 135.337H397.125V123.364H404.283C410.688 123.364 415 119.597 415 113.778C415 107.917 410.646 104.149 404.283 104.149H393.148V135.337ZM397.125 119.89V107.624H404.283C408.26 107.624 410.897 110.094 410.897 113.736C410.897 117.42 408.26 119.89 404.283 119.89H397.125Z" fill="white"/>
<defs>
<linearGradient id="paint0_linear_537_432" x1="171.522" y1="175.706" x2="155.155" y2="-27.0969" gradientUnits="userSpaceOnUse">
<stop stop-color="#E7B84A"/>
<stop offset="0.449606" stop-color="#FFE8CE"/>
<stop offset="1" stop-color="#E7B84A"/>
</linearGradient>
<linearGradient id="paint1_linear_537_432" x1="448.439" y1="92.0495" x2="446.683" y2="8.38393" gradientUnits="userSpaceOnUse">
<stop stop-color="#E7B84A"/>
<stop offset="0.449606" stop-color="#FFE8CE"/>
<stop offset="1" stop-color="#E7B84A"/>
</linearGradient>
</defs>
</svg>
